<svg version="1.1" id="Layer_1" xmlns="http://www.w3.org/2000/svg" xmlns:xlink="http://www.w3.org/1999/xlink" x="0px" y="0px"
	 width="100%" viewBox="0 0 200 200" enable-background="new 0 0 200 200" xml:space="preserve">
<path fill="#FDFEFE" opacity="1.000000" stroke="none" 
	d="
M116.000000,201.000000 
	C77.357201,201.000000 39.214397,201.000000 1.035799,201.000000 
	C1.035799,134.398911 1.035799,67.797783 1.035799,1.098330 
	C67.559296,1.098330 134.118790,1.098330 200.839142,1.098330 
	C200.839142,67.666351 200.839142,134.333145 200.839142,201.000000 
	C172.798065,201.000000 144.649033,201.000000 116.000000,201.000000 
M60.725857,184.852142 
	C111.450851,206.597961 168.500061,181.960754 185.478851,130.476974 
	C203.165848,76.845779 169.924667,29.157116 131.804642,16.192474 
	C131.804642,18.130434 131.804657,19.903551 131.804642,21.676666 
	C131.804352,42.663403 131.971832,63.652164 131.717972,84.635834 
	C131.621643,92.599045 131.140762,100.649055 129.821487,108.488930 
	C125.822639,132.252319 114.031387,150.475143 89.813049,157.150528 
	C79.433228,160.011581 68.122810,160.264694 57.232731,160.283768 
	C46.954227,160.301773 36.672466,158.457489 25.793850,157.372726 
	C35.375275,169.210861 46.544945,178.309967 60.725857,184.852142 
M27.513639,43.037598 
	C20.416969,51.592674 14.720173,61.047722 11.635717,71.696571 
	C5.986902,91.198677 5.290869,86.952202 17.851788,101.673439 
	C18.392336,102.306961 18.923033,102.953255 19.509779,103.542351 
	C31.503588,115.584160 45.009846,124.938606 62.295357,127.547043 
	C78.655724,130.015884 90.923660,122.093994 94.803009,106.021080 
	C96.119316,100.567314 96.732254,94.823250 96.779305,89.204407 
	C96.989998,64.045662 96.884895,38.884235 96.874290,13.723781 
	C96.873749,12.441006 96.692200,11.158306 96.556900,9.373898 
	C68.646683,10.557882 45.889320,21.444984 27.513639,43.037598 
z"/>
<path fill="#3F5E86" opacity="1.000000" stroke="none" 
	d="
M60.389244,184.679474 
	C46.544945,178.309967 35.375275,169.210861 25.793850,157.372726 
	C36.672466,158.457489 46.954227,160.301773 57.232731,160.283768 
	C68.122810,160.264694 79.433228,160.011581 89.813049,157.150528 
	C114.031387,150.475143 125.822639,132.252319 129.821487,108.488930 
	C131.140762,100.649055 131.621643,92.599045 131.717972,84.635834 
	C131.971832,63.652164 131.804352,42.663403 131.804642,21.676666 
	C131.804657,19.903551 131.804642,18.130434 131.804642,16.192474 
	C169.924667,29.157116 203.165848,76.845779 185.478851,130.476974 
	C168.500061,181.960754 111.450851,206.597961 60.389244,184.679474 
z"/>
<path fill="#3F5E86" opacity="1.000000" stroke="none" 
	d="
M27.752048,42.773045 
	C45.889320,21.444984 68.646683,10.557882 96.556900,9.373898 
	C96.692200,11.158306 96.873749,12.441006 96.874290,13.723781 
	C96.884895,38.884235 96.989998,64.045662 96.779305,89.204407 
	C96.732254,94.823250 96.119316,100.567314 94.803009,106.021080 
	C90.923660,122.093994 78.655724,130.015884 62.295357,127.547043 
	C45.009846,124.938606 31.503588,115.584160 19.509779,103.542351 
	C18.923033,102.953255 18.392336,102.306961 17.851788,101.673439 
	C5.290869,86.952202 5.986902,91.198677 11.635717,71.696571 
	C14.720173,61.047722 20.416969,51.592674 27.752048,42.773045 
z"/>
</svg>