<svg version="1.1" id="Layer_1" xmlns="http://www.w3.org/2000/svg" xmlns:xlink="http://www.w3.org/1999/xlink" x="0px" y="0px"
	 width="100%" viewBox="0 0 225 225" enable-background="new 0 0 225 225" xml:space="preserve">
<path fill="#010101" opacity="1.000000" stroke="none" 
	d="
M226.000000,97.000000 
	C226.000000,107.354225 226.000000,117.708458 225.550140,128.676270 
	C207.752396,129.289871 190.404510,129.289871 173.030609,129.289871 
	C173.030609,140.614090 173.030609,151.016342 173.030609,162.000000 
	C190.861450,162.000000 208.430725,162.000000 226.000000,162.000000 
	C226.000000,172.354233 226.000000,182.708450 225.531342,193.531860 
	C207.798645,194.001022 190.534592,194.001022 173.000000,194.001022 
	C173.000000,205.091080 173.000000,215.545532 173.000000,226.000000 
	C115.710777,226.000000 58.421555,226.000000 1.066166,226.000000 
	C1.066166,151.101868 1.066166,76.203651 1.066166,1.000000 
	C58.020531,1.000000 115.041611,1.000000 172.433273,1.459997 
	C172.803864,12.150686 172.803864,22.381378 172.803864,33.000000 
	C190.878845,33.000000 208.439423,33.000000 226.000000,33.000000 
	C226.000000,43.354229 226.000000,53.708454 225.531738,64.552490 
	C207.802307,65.042305 190.541122,65.042305 173.217377,65.042305 
	C173.217377,76.107590 173.217377,86.621628 173.217377,97.000000 
	C191.099335,97.000000 208.549667,97.000000 226.000000,97.000000 
M35.392662,137.048874 
	C34.544327,133.889191 33.695992,130.729523 32.923817,127.853493 
	C28.119123,127.853493 23.837116,127.853493 19.496521,127.853493 
	C19.496521,144.678284 19.496521,161.230682 19.496521,177.870132 
	C22.398397,177.870132 25.003078,177.870132 28.113674,177.870132 
	C28.113674,165.338669 28.113674,152.970856 28.113674,140.603043 
	C28.332481,140.596039 28.551287,140.589020 28.770094,140.582001 
	C31.714018,153.050079 34.657944,165.518143 37.578648,177.887848 
	C40.206898,177.887848 42.345825,177.887848 44.712242,177.887848 
	C47.602013,165.355698 50.470043,152.917831 53.338074,140.479965 
	C53.601074,140.518463 53.864079,140.556976 54.127083,140.595474 
	C54.127083,153.003601 54.127083,165.411728 54.127083,177.730438 
	C57.176544,177.730438 59.908340,177.730438 62.736801,177.730438 
	C62.736801,160.983261 62.736801,144.549728 62.736801,127.847839 
	C58.189529,127.847839 53.777153,127.847839 48.981968,127.847839 
	C46.452988,137.806778 43.923763,147.766693 41.042953,159.111115 
	C39.053265,151.155869 37.384220,144.482635 35.392662,137.048874 
M64.939697,100.998238 
	C76.887810,104.967186 85.989967,99.999115 87.248436,87.714439 
	C88.120682,79.199959 87.653214,70.447685 86.843124,61.890766 
	C86.090614,53.941887 80.147705,49.503120 72.001083,49.395538 
	C64.194366,49.292450 57.958950,53.477566 57.201561,61.257309 
	C56.292522,70.594841 56.809299,80.091309 57.035908,89.511078 
	C57.155533,94.483772 59.797977,98.258736 64.939697,100.998238 
M19.101517,96.330902 
	C19.171911,97.778206 19.242306,99.225517 19.312794,100.674706 
	C22.835920,100.674706 26.042389,100.674706 29.704956,100.674706 
	C29.704956,94.316368 29.704956,88.268471 29.704956,81.826820 
	C32.980026,81.826820 35.819260,82.092873 38.591690,81.775459 
	C46.026894,80.924202 50.458599,76.167099 51.151699,68.665642 
	C51.976883,59.734623 48.748810,52.697090 41.940426,51.500706 
	C34.550415,50.202114 26.900209,50.384239 19.101513,49.904575 
	C19.101513,65.780823 19.101513,80.571213 19.101517,96.330902 
M144.450058,75.080482 
	C148.117828,67.015083 151.785599,58.949684 155.537476,50.699329 
	C145.317474,49.560555 145.335159,49.568333 141.720123,57.791847 
	C140.117310,61.437958 138.426575,65.045433 136.651306,68.943726 
	C134.043243,63.294098 131.858765,58.099224 129.218231,53.147549 
	C128.503036,51.806343 126.512703,50.717838 124.921867,50.374786 
	C122.742775,49.904877 120.386353,50.257324 117.218399,50.257324 
	C124.234238,66.920731 136.036789,81.582199 131.182053,100.644012 
	C135.457199,100.644012 138.660812,100.644012 141.974777,100.644012 
	C141.974777,98.301315 141.806702,96.293816 142.005951,94.323463 
	C142.631454,88.137787 143.395203,81.966087 144.450058,75.080482 
M86.258873,141.560867 
	C86.258873,153.640930 86.258873,165.720993 86.258873,177.839920 
	C90.092888,177.839920 93.355713,177.839920 97.128563,177.839920 
	C97.128563,164.126022 97.128563,150.604324 97.128563,136.862411 
	C101.094879,136.862411 104.545647,136.862411 108.194405,136.862411 
	C108.194405,133.728073 108.194405,130.829376 108.194405,127.760193 
	C97.021919,127.760193 86.119957,127.760193 75.180374,127.760193 
	C75.180374,130.896881 75.180374,133.806274 75.180374,136.973907 
	C77.912056,136.973907 80.400513,137.175583 82.841782,136.922348 
	C85.824532,136.612930 86.702583,137.877853 86.258873,141.560867 
M109.498459,100.994659 
	C114.261871,100.994659 119.025284,100.994659 123.729019,100.994659 
	C123.729019,97.494370 123.729019,94.580688 123.729019,91.236832 
	C117.082329,91.236832 110.684586,91.236832 103.867828,91.236832 
	C103.867828,77.412750 103.867828,64.022591 103.867828,50.452171 
	C100.330574,50.452171 97.231277,50.452171 93.861145,50.452171 
	C93.861145,67.295944 93.861145,84.026184 93.861145,100.994659 
	C98.870583,100.994659 103.686241,100.994659 109.498459,100.994659 
M118.925964,158.499619 
	C118.925964,164.918091 118.925964,171.336548 118.925964,177.682281 
	C129.320831,177.682281 139.182175,177.682281 148.884888,177.682281 
	C148.884888,174.553436 148.884888,171.773331 148.884888,168.594299 
	C142.263428,168.594299 135.856812,168.594299 128.929596,168.594299 
	C128.929596,154.685669 128.929596,141.171371 128.929596,127.856445 
	C125.319832,127.856445 122.247154,127.856445 118.925964,127.856445 
	C118.925964,137.932373 118.925964,147.716095 118.925964,158.499619 
z"/>
<path fill="#F6931E" opacity="1.000000" stroke="none" 
	d="
M226.000000,161.531342 
	C208.430725,162.000000 190.861450,162.000000 173.030609,162.000000 
	C173.030609,151.016342 173.030609,140.614090 173.030609,129.289871 
	C190.404510,129.289871 207.752396,129.289871 225.550140,129.144928 
	C226.000000,139.687561 226.000000,150.375122 226.000000,161.531342 
z"/>
<path fill="#41AAE6" opacity="1.000000" stroke="none" 
	d="
M226.000000,32.531342 
	C208.439423,33.000000 190.878845,33.000000 172.803864,33.000000 
	C172.803864,22.381378 172.803864,12.150686 172.901932,1.459997 
	C190.575226,1.000000 208.150467,1.000000 226.000000,1.000000 
	C226.000000,11.352615 226.000000,21.707649 226.000000,32.531342 
z"/>
<path fill="#8CC83C" opacity="1.000000" stroke="none" 
	d="
M226.000000,96.531342 
	C208.549667,97.000000 191.099335,97.000000 173.217377,97.000000 
	C173.217377,86.621628 173.217377,76.107590 173.217377,65.042305 
	C190.541122,65.042305 207.802307,65.042305 225.531738,65.021149 
	C226.000000,75.354225 226.000000,85.708458 226.000000,96.531342 
z"/>
<path fill="#B91E32" opacity="1.000000" stroke="none" 
	d="
M173.468658,226.000000 
	C173.000000,215.545532 173.000000,205.091080 173.000000,194.001022 
	C190.534592,194.001022 207.798645,194.001022 225.531342,194.000519 
	C226.000000,204.611465 226.000000,215.222916 226.000000,226.000000 
	C208.646072,226.000000 191.291702,226.000000 173.468658,226.000000 
z"/>
<path fill="#F8F8F8" opacity="1.000000" stroke="none" 
	d="
M35.553917,137.429138 
	C37.384220,144.482635 39.053265,151.155869 41.042953,159.111115 
	C43.923763,147.766693 46.452988,137.806778 48.981968,127.847839 
	C53.777153,127.847839 58.189529,127.847839 62.736801,127.847839 
	C62.736801,144.549728 62.736801,160.983261 62.736801,177.730438 
	C59.908340,177.730438 57.176544,177.730438 54.127083,177.730438 
	C54.127083,165.411728 54.127083,153.003601 54.127083,140.595474 
	C53.864079,140.556976 53.601074,140.518463 53.338074,140.479965 
	C50.470043,152.917831 47.602013,165.355698 44.712242,177.887848 
	C42.345825,177.887848 40.206898,177.887848 37.578648,177.887848 
	C34.657944,165.518143 31.714018,153.050079 28.770094,140.582001 
	C28.551287,140.589020 28.332481,140.596039 28.113674,140.603043 
	C28.113674,152.970856 28.113674,165.338669 28.113674,177.870132 
	C25.003078,177.870132 22.398397,177.870132 19.496521,177.870132 
	C19.496521,161.230682 19.496521,144.678284 19.496521,127.853493 
	C23.837116,127.853493 28.119123,127.853493 32.923817,127.853493 
	C33.695992,130.729523 34.544327,133.889191 35.553917,137.429138 
z"/>
<path fill="#F7F7F7" opacity="1.000000" stroke="none" 
	d="
M64.569687,100.849762 
	C59.797977,98.258736 57.155533,94.483772 57.035908,89.511078 
	C56.809299,80.091309 56.292522,70.594841 57.201561,61.257309 
	C57.958950,53.477566 64.194366,49.292450 72.001083,49.395538 
	C80.147705,49.503120 86.090614,53.941887 86.843124,61.890766 
	C87.653214,70.447685 88.120682,79.199959 87.248436,87.714439 
	C85.989967,99.999115 76.887810,104.967186 64.569687,100.849762 
M77.024887,86.954239 
	C77.037521,79.812782 77.040939,72.671303 77.066788,65.529892 
	C77.079185,62.103981 76.523758,59.070122 72.174629,58.997662 
	C68.009842,58.928280 66.791870,61.656860 66.770889,65.197868 
	C66.728584,72.337944 66.756386,79.478920 66.822174,86.618912 
	C66.849571,89.592232 67.470551,92.407043 71.023140,92.957542 
	C74.843201,93.549477 76.341896,91.113106 77.024887,86.954239 
z"/>
<path fill="#F9F9F9" opacity="1.000000" stroke="none" 
	d="
M19.101515,95.846252 
	C19.101513,80.571213 19.101513,65.780823 19.101513,49.904575 
	C26.900209,50.384239 34.550415,50.202114 41.940426,51.500706 
	C48.748810,52.697090 51.976883,59.734623 51.151699,68.665642 
	C50.458599,76.167099 46.026894,80.924202 38.591690,81.775459 
	C35.819260,82.092873 32.980026,81.826820 29.704956,81.826820 
	C29.704956,88.268471 29.704956,94.316368 29.704956,100.674706 
	C26.042389,100.674706 22.835920,100.674706 19.312794,100.674706 
	C19.242306,99.225517 19.171911,97.778206 19.101515,95.846252 
M35.977001,58.965252 
	C33.895142,58.965252 31.813280,58.965252 29.723524,58.965252 
	C29.723524,64.073593 29.723524,68.634178 29.723524,73.413605 
	C34.050655,73.491516 38.550728,74.720856 40.194614,69.186714 
	C41.396446,65.140755 41.497353,61.263733 35.977001,58.965252 
z"/>
<path fill="#F9F9F9" opacity="1.000000" stroke="none" 
	d="
M144.277740,75.434731 
	C143.395203,81.966087 142.631454,88.137787 142.005951,94.323463 
	C141.806702,96.293816 141.974777,98.301315 141.974777,100.644012 
	C138.660812,100.644012 135.457199,100.644012 131.182053,100.644012 
	C136.036789,81.582199 124.234238,66.920731 117.218399,50.257324 
	C120.386353,50.257324 122.742775,49.904877 124.921867,50.374786 
	C126.512703,50.717838 128.503036,51.806343 129.218231,53.147549 
	C131.858765,58.099224 134.043243,63.294098 136.651306,68.943726 
	C138.426575,65.045433 140.117310,61.437958 141.720123,57.791847 
	C145.335159,49.568333 145.317474,49.560555 155.537476,50.699329 
	C151.785599,58.949684 148.117828,67.015083 144.277740,75.434731 
z"/>
<path fill="#F9F9F9" opacity="1.000000" stroke="none" 
	d="
M86.258911,141.068420 
	C86.702583,137.877853 85.824532,136.612930 82.841782,136.922348 
	C80.400513,137.175583 77.912056,136.973907 75.180374,136.973907 
	C75.180374,133.806274 75.180374,130.896881 75.180374,127.760193 
	C86.119957,127.760193 97.021919,127.760193 108.194405,127.760193 
	C108.194405,130.829376 108.194405,133.728073 108.194405,136.862411 
	C104.545647,136.862411 101.094879,136.862411 97.128563,136.862411 
	C97.128563,150.604324 97.128563,164.126022 97.128563,177.839920 
	C93.355713,177.839920 90.092888,177.839920 86.258873,177.839920 
	C86.258873,165.720993 86.258873,153.640930 86.258911,141.068420 
z"/>
<path fill="#FAFAFA" opacity="1.000000" stroke="none" 
	d="
M109.000175,100.994659 
	C103.686241,100.994659 98.870583,100.994659 93.861145,100.994659 
	C93.861145,84.026184 93.861145,67.295944 93.861145,50.452171 
	C97.231277,50.452171 100.330574,50.452171 103.867828,50.452171 
	C103.867828,64.022591 103.867828,77.412750 103.867828,91.236832 
	C110.684586,91.236832 117.082329,91.236832 123.729019,91.236832 
	C123.729019,94.580688 123.729019,97.494370 123.729019,100.994659 
	C119.025284,100.994659 114.261871,100.994659 109.000175,100.994659 
z"/>
<path fill="#FFFFFF" opacity="1.000000" stroke="none" 
	d="
M118.925964,157.999725 
	C118.925964,147.716095 118.925964,137.932373 118.925964,127.856445 
	C122.247154,127.856445 125.319832,127.856445 128.929596,127.856445 
	C128.929596,141.171371 128.929596,154.685669 128.929596,168.594299 
	C135.856812,168.594299 142.263428,168.594299 148.884888,168.594299 
	C148.884888,171.773331 148.884888,174.553436 148.884888,177.682281 
	C139.182175,177.682281 129.320831,177.682281 118.925964,177.682281 
	C118.925964,171.336548 118.925964,164.918091 118.925964,157.999725 
z"/>
<path fill="#030303" opacity="1.000000" stroke="none" 
	d="
M77.005363,87.395538 
	C76.341896,91.113106 74.843201,93.549477 71.023140,92.957542 
	C67.470551,92.407043 66.849571,89.592232 66.822174,86.618912 
	C66.756386,79.478920 66.728584,72.337944 66.770889,65.197868 
	C66.791870,61.656860 68.009842,58.928280 72.174629,58.997662 
	C76.523758,59.070122 77.079185,62.103981 77.066788,65.529892 
	C77.040939,72.671303 77.037521,79.812782 77.005363,87.395538 
z"/>
<path fill="#131313" opacity="1.000000" stroke="none" 
	d="
M36.395565,59.029938 
	C41.497353,61.263733 41.396446,65.140755 40.194614,69.186714 
	C38.550728,74.720856 34.050655,73.491516 29.723524,73.413605 
	C29.723524,68.634178 29.723524,64.073593 29.723524,58.965252 
	C31.813280,58.965252 33.895142,58.965252 36.395565,59.029938 
z"/>
</svg>