<svg id="그룹_1837" data-name="그룹 1837" xmlns="http://www.w3.org/2000/svg" width="200" height="153.469" viewBox="0 0 200 153.469">
    <defs>
        <clipPath id="clip-path">
            <path id="사각형_1248" data-name="사각형 1248" style="fill:none" d="M0 0h200v153.469H0z"/>
        </clipPath>
        <style>
            .cls-3{fill:#713545}.cls-4{fill:#f0d67b}
        </style>
    </defs>
    <g id="그룹_1836" data-name="그룹 1836" style="clip-path:url(#clip-path)">
        <path id="패스_28470" data-name="패스 28470" class="cls-3" d="M19.328 292.5c.194-.5.55-1.409.86-2.306s.483-1.414.52-1.556a1.623 1.623 0 0 0 .057-.4.518.518 0 0 0-.173-.435.59.59 0 0 0-.344-.144c-.166-.011-.249-.061-.248-.149s.075-.142.224-.142l.844.029q.493 0 .858-.033c.137-.011.229-.016.275-.017.13 0 .2.051.195.149s-.07.139-.207.153a.809.809 0 0 0-.36.122 1.519 1.519 0 0 0-.373.444 9.174 9.174 0 0 0-.632 1.481l-.872 2.043-1.016 2.347-.722-.579c-.077-.167-.362-1.295-.674-2.086l-1.49 2.67-.7-.456s-1.337-3.475-1.781-4.558a5.742 5.742 0 0 0-.6-1.243c-.133-.123-.416-.077-.578-.123-.1-.029-.155-.082-.155-.159a.115.115 0 0 1 .058-.114.9.9 0 0 1 .307-.028s2.168-.092 2.369-.091c.119 0 .179.052.179.155s-.072.148-.215.158-.265.131-.211.458a5.5 5.5 0 0 0 .384 1.1c.071.166.429.925.929 2.14.3.72.389 1.009.524 1s.275-.3.405-.539.345-.533.337-.688a7.555 7.555 0 0 0-.379-1.371 10.338 10.338 0 0 0-.7-1.659c-.1-.142-.293-.4-.495-.43q-.164-.028-.163-.155a.108.108 0 0 1 .062-.111 1.863 1.863 0 0 1 .443-.026l.9.051c.424.05.744.893.744.893l.488 1.144s.141-.009.446-.8a2.744 2.744 0 0 0 .195-.656.356.356 0 0 0-.079-.246.332.332 0 0 0-.28-.124.137.137 0 0 1-.152-.114c0-.048.043-.1.195-.1s.42-.015.589-.022a.927.927 0 0 1 .5.069c.1.078 0 .367-.165.633s-.481.924-.676 1.245a2.834 2.834 0 0 0-.37.684 10.2 10.2 0 0 0 .4 1.269c.134.307.527 1.222.527 1.222" transform="translate(-5.992 -140.743)"/>
        <path id="패스_28471" data-name="패스 28471" class="cls-3" d="M3.094 292.309a3.928 3.928 0 0 0 .09 1.162q.1.232.533.291c.154.022.23.067.23.137 0 .121-.07.183-.208.182-.066 0-.162-.009-.29-.023a10.189 10.189 0 0 0-1.179-.064 8.638 8.638 0 0 0-1.013.062 2.628 2.628 0 0 1-.286.019c-.111 0-.166-.058-.165-.173a.122.122 0 0 1 .054-.115.784.784 0 0 1 .252-.05.6.6 0 0 0 .342-.132.642.642 0 0 0 .155-.344 10.089 10.089 0 0 0 .082-1.171q.035-.929.043-2.056t-.015-1.607a2.523 2.523 0 0 0-.1-.692.55.55 0 0 0-.183-.283 1.149 1.149 0 0 0-.41-.093c-.106-.007-.157-.057-.156-.147 0-.108.083-.162.247-.16.118 0 .295.012.53.034.292.029.531.045.718.046.115 0 .441-.012.978-.038.158-.005.279-.008.364-.007.124 0 .187.048.186.142s-.065.153-.193.166a.591.591 0 0 0-.43.165.769.769 0 0 0-.111.418z" transform="translate(-.395 -140.613)"/>
        <path id="패스_28472" data-name="패스 28472" class="cls-3" d="M5.157 290.689s.523 1.067 1.01 1.929.581 1.309 1.716 1.482 1.6.145 1.636-.057-.337-.267-.457-.285a5.081 5.081 0 0 1-1.792-2.086 65.187 65.187 0 0 0-.907-1.711A5.939 5.939 0 0 1 7.1 288.9c.534-.64.987-1.159 1.445-1.172s.608 0 .632-.119-.18-.164-.263-.177-1.172-.055-1.242-.065-2.413 3.1-2.52 3.326" transform="translate(-2.526 -140.765)"/>
        <path id="패스_28473" data-name="패스 28473" class="cls-3" d="M31.749 286.77h.331q.64 1.474 1.808 4.637a12.206 12.206 0 0 0 .742 1.762.888.888 0 0 0 .646.376c.1.014.145.058.145.134q0 .159-.189.159c-.068 0-.244-.012-.53-.035-.336-.032-.619-.047-.849-.047s-.514.013-.873.041q-.4.031-.529.031-.223 0-.223-.149c0-.076.052-.119.156-.129q.6-.057.6-.5a3.085 3.085 0 0 0-.174-.759 9.8 9.8 0 0 0-.373-1c-.21 0-.374-.006-.491-.006q-.977 0-1.522.006A6.471 6.471 0 0 0 30 292.9a.517.517 0 0 0 .209.44.9.9 0 0 0 .451.181q.184.021.184.161c0 .092-.066.139-.2.139-.052 0-.187-.008-.408-.026a8.311 8.311 0 0 0-.62-.036 4.938 4.938 0 0 0-.728.052.925.925 0 0 1-.146.014q-.179 0-.179-.154a.147.147 0 0 1 .116-.15 1.358 1.358 0 0 0 .456-.215 1.54 1.54 0 0 0 .357-.491 8.5 8.5 0 0 0 .459-1.168q.6-1.8 1.8-4.873m-.342 1.8-.843 2.3 1.716-.026q-.137-.4-.417-1.109-.305-.761-.456-1.168" transform="translate(-13.993 -140.474)"/>
        <path id="패스_28474" data-name="패스 28474" class="cls-3" d="M42.963 287.089q2.324 2.807 3.877 4.5V289.098a4.768 4.768 0 0 0-.077-1.031.834.834 0 0 0-.33-.491 1.181 1.181 0 0 0-.587-.211c-.12-.013-.18-.066-.18-.16s.055-.149.165-.149a1.921 1.921 0 0 1 .238.019 7.4 7.4 0 0 0 .81.033 10.1 10.1 0 0 0 1.018-.038c.1-.01.18-.014.248-.014.123 0 .185.05.185.149s-.083.153-.248.169a.987.987 0 0 0-.569.273 1.282 1.282 0 0 0-.265.952l.024 2.914-.034 2.192c0 .189-.055.283-.165.283a.217.217 0 0 1-.1-.031 8.785 8.785 0 0 1-.666-.713q-.61-.683-1.81-2.118t-1.687-2.057q-.009.139-.01 2.591a9.089 9.089 0 0 0 .061 1.188.815.815 0 0 0 .379.623 1.132 1.132 0 0 0 .575.193c.11 0 .165.045.165.134s-.059.155-.175.155a2.386 2.386 0 0 1-.281-.02 5.308 5.308 0 0 0-.743-.041 8.027 8.027 0 0 0-1.047.047 2.676 2.676 0 0 1-.291.024c-.127 0-.19-.057-.19-.169 0-.083.1-.132.306-.15a.717.717 0 0 0 .687-.4 2.745 2.745 0 0 0 .139-.969q0-2.658-.028-3.25a2.041 2.041 0 0 0-.349-1.072 1.239 1.239 0 0 0-.779-.571c-.125-.024-.189-.077-.189-.16 0-.113.067-.169.2-.169a1.413 1.413 0 0 1 .141.01c.074.007.208.011.4.011q.631 0 1.174.015" transform="translate(-20.106 -140.613)"/>
        <path id="패스_28475" data-name="패스 28475" class="cls-3" d="m57.642 287.154 1.412-.041q.233 0 .233.149t-.222.149a.616.616 0 0 0-.471.211 2.372 2.372 0 0 0-.177 1.093q-.028.9-.027 1.7l.01 1.066a3.656 3.656 0 0 1-.231 1.5 1.887 1.887 0 0 1-.732.791 2.083 2.083 0 0 1-1.123.312 1.59 1.59 0 0 1-1.072-.345 1.056 1.056 0 0 1-.4-.83.825.825 0 0 1 .211-.556.713.713 0 0 1 .565-.242.662.662 0 0 1 .5.192.616.616 0 0 1 .183.439 1.06 1.06 0 0 1-.141.424.753.753 0 0 0-.106.295.24.24 0 0 0 .077.194.351.351 0 0 0 .228.064.566.566 0 0 0 .549-.393 6.678 6.678 0 0 0 .165-1.94q0-3.2-.083-3.585t-.727-.4c-.133 0-.2-.051-.2-.143s.071-.155.213-.155c.033 0 .148.007.349.019.42.022.76.033 1.019.033" transform="translate(-26.862 -140.637)"/>
        <path id="패스_28476" data-name="패스 28476" class="cls-3" d="M69.59 287.184q.155.8.305 1.607c0 .1-.046.149-.139.149-.052 0-.111-.047-.174-.143a3.2 3.2 0 0 0-.915-1.015 2.367 2.367 0 0 0-1.2-.247 4.493 4.493 0 0 0-.845.078q-.086.91-.087 1.995 0 .185.01.622l.368.005a1.589 1.589 0 0 0 .594-.1.871.871 0 0 0 .425-.428 2.749 2.749 0 0 0 .2-.42c.029-.11.08-.164.15-.164.09 0 .136.041.136.123a.375.375 0 0 1-.011.083 17 17 0 0 0-.058 1.911 1.974 1.974 0 0 0 .038.4.443.443 0 0 1 .011.088c0 .1-.052.144-.155.144-.071 0-.126-.09-.165-.272a1.145 1.145 0 0 0-.443-.729 1.93 1.93 0 0 0-1.091-.26q-.024.865-.024 1.138 0 1.175.034 1.4a.51.51 0 0 0 .248.359 1.423 1.423 0 0 0 .722.135 2.406 2.406 0 0 0 2.432-1.246c.055-.117.115-.176.179-.176.093 0 .14.041.14.124a.962.962 0 0 1-.03.211l-.315 1.479-1.756-.005c-.495 0-.957-.015-1.385-.036s-.764-.031-1.007-.031q-.409 0-1.228.052a2.03 2.03 0 0 1-.15.01c-.153 0-.229-.054-.229-.16s.062-.144.185-.144a.677.677 0 0 0 .633-.271 2.44 2.44 0 0 0 .163-1.1l.029-2.651q0-1.359-.031-1.671a.612.612 0 0 0-.167-.422 1.12 1.12 0 0 0-.51-.167c-.1-.014-.154-.062-.154-.144 0-.1.059-.155.179-.155l1.169.038z" transform="translate(-31.438 -140.652)"/>
        <path id="패스_28477" data-name="패스 28477" class="cls-3" d="M80.045 286.951a3.421 3.421 0 0 1 1.715.417 3.1 3.1 0 0 1 1.179 1.208 3.467 3.467 0 0 1 .443 1.724 3.688 3.688 0 0 1-1.014 2.557 3.3 3.3 0 0 1-5.813-2.3 3.577 3.577 0 0 1 1-2.545 3.278 3.278 0 0 1 2.487-1.061m1.693 3.5a4.453 4.453 0 0 0-.5-2.349 1.407 1.407 0 0 0-2.528 0 4.441 4.441 0 0 0-.5 2.347 4.663 4.663 0 0 0 .478 2.318 1.442 1.442 0 0 0 1.284.823 1.51 1.51 0 0 0 1.24-.743 4.239 4.239 0 0 0 .526-2.4" transform="translate(-37.501 -140.563)"/>
        <path id="패스_28478" data-name="패스 28478" class="cls-3" d="M91.609 287.089q2.325 2.807 3.877 4.5V289.098a4.727 4.727 0 0 0-.078-1.031.825.825 0 0 0-.33-.491 1.179 1.179 0 0 0-.586-.211c-.12-.013-.18-.066-.18-.16s.055-.149.165-.149a1.921 1.921 0 0 1 .238.019 7.406 7.406 0 0 0 .81.033 10.154 10.154 0 0 0 1.02-.038c.1-.01.18-.014.247-.014.123 0 .185.05.185.149s-.082.153-.248.169a.991.991 0 0 0-.57.273 1.287 1.287 0 0 0-.264.952l.024 2.914-.034 2.192c0 .189-.055.283-.165.283a.217.217 0 0 1-.1-.031 8.726 8.726 0 0 1-.667-.713q-.609-.683-1.81-2.118t-1.686-2.057q-.011.139-.01 2.591a9.031 9.031 0 0 0 .06 1.188.817.817 0 0 0 .379.623 1.135 1.135 0 0 0 .575.193c.109 0 .165.045.165.134s-.059.155-.174.155a2.408 2.408 0 0 1-.282-.02 5.3 5.3 0 0 0-.742-.041 8.042 8.042 0 0 0-1.048.047 2.666 2.666 0 0 1-.291.024c-.127 0-.189-.057-.189-.169 0-.083.1-.132.306-.15a.716.716 0 0 0 .686-.4 2.732 2.732 0 0 0 .139-.969q0-2.658-.027-3.25a2.051 2.051 0 0 0-.349-1.072 1.241 1.241 0 0 0-.779-.571c-.125-.024-.189-.077-.189-.16q0-.169.2-.169a1.4 1.4 0 0 1 .141.01c.074.007.209.011.4.011q.63 0 1.174.015" transform="translate(-43.936 -140.613)"/>
        <path id="패스_28479" data-name="패스 28479" class="cls-3" d="m110.356 287.554.141 1.494c.007.069.01.124.01.165 0 .106-.044.16-.131.16s-.148-.061-.2-.181a3.783 3.783 0 0 0-1-1.349 2.153 2.153 0 0 0-1.424-.52 1.829 1.829 0 0 0-1.625.922 3.99 3.99 0 0 0-.584 2.179 3.816 3.816 0 0 0 .647 2.3 1.865 1.865 0 0 0 1.527.894 1.753 1.753 0 0 0 .759-.183 1.031 1.031 0 0 0 .5-.392 1.326 1.326 0 0 0 .109-.6 5.055 5.055 0 0 0-.066-1.078.475.475 0 0 0-.217-.3 2.031 2.031 0 0 0-.614-.139c-.12-.014-.18-.063-.18-.149s.057-.149.17-.149h.734l2.24-.052c.1 0 .152.045.152.134a.109.109 0 0 1-.059.107 3.149 3.149 0 0 1-.407.105.508.508 0 0 0-.335.185 7.832 7.832 0 0 0-.112 1.552 4.068 4.068 0 0 1-.019.357 3.3 3.3 0 0 1-.576.35 4.867 4.867 0 0 1-2.355.615 3.745 3.745 0 0 1-1.786-.417 3.242 3.242 0 0 1-1.747-2.988 3.724 3.724 0 0 1 .963-2.563 3.357 3.357 0 0 1 2.638-1.079 3.512 3.512 0 0 1 1.069.152 9.373 9.373 0 0 1 1.085.435.508.508 0 0 0 .209.057c.064 0 .114-.049.15-.149.045-.132.1-.2.18-.2s.14.108.16.324" transform="translate(-50.897 -140.553)"/>
        <path id="패스_28480" data-name="패스 28480" class="cls-3" d="M128.2 287.369q.157.781.31 1.563a.128.128 0 0 1-.142.146q-.079 0-.176-.141a3.162 3.162 0 0 0-.927-.989 2.489 2.489 0 0 0-1.213-.24 4.792 4.792 0 0 0-.857.075 19.417 19.417 0 0 0-.089 1.942c0 .119 0 .321.01.6h.374a1.675 1.675 0 0 0 .6-.1.864.864 0 0 0 .431-.415 2.675 2.675 0 0 0 .2-.409c.03-.107.081-.161.153-.161.092 0 .138.041.138.12a.348.348 0 0 1-.01.081 15.913 15.913 0 0 0-.058 1.86 1.834 1.834 0 0 0 .038.391.383.383 0 0 1 .012.085c0 .093-.054.14-.158.14-.072 0-.128-.088-.167-.266a1.106 1.106 0 0 0-.449-.71 2.036 2.036 0 0 0-1.105-.253q-.024.843-.024 1.108 0 1.142.034 1.358a.5.5 0 0 0 .25.349 1.491 1.491 0 0 0 .734.133 2.464 2.464 0 0 0 2.466-1.213c.055-.114.116-.17.181-.17.094 0 .142.041.142.12a.874.874 0 0 1-.03.206l-.319 1.439-1.78-.005q-.754-.005-1.4-.036t-1.021-.03q-.413 0-1.245.051c-.069.006-.12.01-.152.01-.155 0-.232-.052-.232-.156s.062-.14.187-.14a.7.7 0 0 0 .642-.263 2.3 2.3 0 0 0 .165-1.074l.029-2.579q0-1.323-.032-1.625a.585.585 0 0 0-.169-.411 1.177 1.177 0 0 0-.517-.162c-.105-.014-.157-.06-.157-.141 0-.1.06-.151.182-.151l1.185.037z" transform="translate(-60.113 -140.743)"/>
        <path id="패스_28481" data-name="패스 28481" class="cls-3" d="M138.621 293.973q-.217 0-1.775-.03l-1.083.005-.635-.011a.819.819 0 0 1-.283-.028c-.037-.017-.056-.058-.056-.121 0-.1.07-.146.211-.146a.987.987 0 0 0 .591-.14.741.741 0 0 0 .236-.517q.049-.376.091-1.5t.042-2.067a5.969 5.969 0 0 0-.126-1.632c-.083-.2-.291-.312-.622-.329q-.177-.015-.177-.15c0-.09.052-.135.157-.135.063 0 .273.018.635.055q.6.055.836.056l1.865-.04a4.615 4.615 0 0 1 1.8.363 2.911 2.911 0 0 1 1.375 1.189 3.663 3.663 0 0 1 .212 3.311 3.187 3.187 0 0 1-1.985 1.725 5.284 5.284 0 0 1-1.309.143m-.334-.366a1.993 1.993 0 0 0 1.633-.737 3.261 3.261 0 0 0 .6-2.107 3.824 3.824 0 0 0-.647-2.29 2.128 2.128 0 0 0-1.837-.9 1.349 1.349 0 0 0-.49.048.222.222 0 0 0-.1.1q-.02.05-.06 1.124l-.058 1.7q-.015.628-.015 1.555a5.165 5.165 0 0 0 .059.961.652.652 0 0 0 .26.406 1.164 1.164 0 0 0 .655.143" transform="translate(-66.026 -140.671)"/>
        <path id="패스_28482" data-name="패스 28482" class="cls-3" d="m149.436 287.211 1.584.05a6.4 6.4 0 0 0 .517-.025q.462-.035.728-.035c.168 0 .251.047.251.141s-.066.138-.2.145a.664.664 0 0 0-.529.258 2.065 2.065 0 0 0-.224.977q-.049.74-.049 1.626a8.8 8.8 0 0 0 .133 1.913 1.327 1.327 0 0 0 .571.779 2.067 2.067 0 0 0 1.161.291 1.666 1.666 0 0 0 1.107-.318 1.712 1.712 0 0 0 .514-1 14.817 14.817 0 0 0 .141-2.528 4.6 4.6 0 0 0-.167-1.508.66.66 0 0 0-.57-.456c-.194-.02-.291-.079-.291-.174s.079-.146.237-.146c.074 0 .2.01.379.028s.375.022.575.022c.185 0 .389-.01.615-.029.171-.013.289-.021.355-.021q.245 0 .245.146c0 .076-.058.121-.177.135a.712.712 0 0 0-.445.232 1.2 1.2 0 0 0-.256.687q-.057.48-.057 2.459a5.069 5.069 0 0 1-.256 1.887 1.832 1.832 0 0 1-.893.907 3.476 3.476 0 0 1-1.587.323 5.407 5.407 0 0 1-1.274-.133 2.037 2.037 0 0 1-.858-.408 1.6 1.6 0 0 1-.458-.637 3.077 3.077 0 0 1-.14-1.061l.02-2.669a5.612 5.612 0 0 0-.062-.921.842.842 0 0 0-.194-.479.719.719 0 0 0-.4-.148.527.527 0 0 1-.214-.052.13.13 0 0 1-.042-.108c0-.1.07-.151.212-.151" transform="translate(-73.097 -140.686)"/>
        <path id="패스_28483" data-name="패스 28483" class="cls-3" d="M168.319 287.678q.1-.13.217-.291c.088-.13.162-.2.221-.2s.108.017.128.051a1.037 1.037 0 0 1 .05.31l.1 1.564.01.2q0 .2-.158.2-.1 0-.167-.166a4.514 4.514 0 0 0-.726-1.18 1.632 1.632 0 0 0-1.323-.649 1.461 1.461 0 0 0-.993.348 2.28 2.28 0 0 0-.625.955 4.213 4.213 0 0 0-.224 1.453 3.822 3.822 0 0 0 .625 2.3 1.867 1.867 0 0 0 1.555.854 2.32 2.32 0 0 0 1.851-1.242c.068-.1.133-.152.2-.152a.14.14 0 0 1 .156.16c0 .221-.258.571-.775 1.053a2.739 2.739 0 0 1-1.941.722 3.152 3.152 0 0 1-2.44-.973 3.4 3.4 0 0 1-.9-2.391 3.62 3.62 0 0 1 .9-2.453 2.9 2.9 0 0 1 2.282-1.041 4.062 4.062 0 0 1 1.974.557" transform="translate(-79.924 -140.646)"/>
        <path id="패스_28484" data-name="패스 28484" class="cls-3" d="M177.534 286.965h.336q.648 1.434 1.833 4.511a11.6 11.6 0 0 0 .752 1.714.907.907 0 0 0 .655.367c.1.014.148.057.148.131 0 .1-.064.156-.192.156a9.4 9.4 0 0 1-.536-.036q-.512-.044-.862-.044t-.886.04q-.408.03-.536.03-.227 0-.227-.145c0-.073.053-.115.158-.125q.605-.055.605-.484a2.927 2.927 0 0 0-.176-.739 9.572 9.572 0 0 0-.378-.977c-.214 0-.381-.005-.5-.005q-.992 0-1.543.005a6.067 6.067 0 0 0-.424 1.567.5.5 0 0 0 .211.427.936.936 0 0 0 .458.176c.124.014.187.065.187.156s-.067.135-.2.135q-.079 0-.413-.025a9.045 9.045 0 0 0-.63-.035 5.23 5.23 0 0 0-.738.05.9.9 0 0 1-.148.015c-.121 0-.182-.051-.182-.151a.144.144 0 0 1 .118-.145 1.438 1.438 0 0 0 .462-.209 1.517 1.517 0 0 0 .362-.479 7.97 7.97 0 0 0 .465-1.136q.613-1.755 1.821-4.742m-.347 1.75-.854 2.24 1.74-.026q-.139-.393-.423-1.077a47.494 47.494 0 0 1-.462-1.137" transform="translate(-85.384 -140.57)"/>
        <path id="패스_28485" data-name="패스 28485" class="cls-3" d="M185.415 287.217q2.554.07 3.781.07.93 0 2.048-.055c.266-.014.484-.02.655-.02h.33q.034.205.088.847l.074.792q0 .2-.161.2c-.082 0-.16-.08-.236-.24a2.375 2.375 0 0 0-.48-.7 1.446 1.446 0 0 0-.68-.386 6.018 6.018 0 0 0-1.277-.1q-.079.767-.079 1.92 0 1.178.044 2.273a8.84 8.84 0 0 0 .108 1.321.571.571 0 0 0 .217.33 1.716 1.716 0 0 0 .718.146c.128.01.191.057.191.14s-.056.14-.167.14h-.138l-1.019-.025c-.794 0-1.277 0-1.448.01l-.62.025c-.049 0-.15 0-.305-.01a.123.123 0 0 1-.114-.125c0-.1.063-.145.187-.145a1 1 0 0 0 .66-.186.877.877 0 0 0 .272-.588q.052-.4.052-1.752 0-2.13-.128-3.468a7.012 7.012 0 0 0-1.173.068 1.43 1.43 0 0 0-.7.37 2.271 2.271 0 0 0-.545.785c-.057.127-.12.19-.192.19-.112 0-.168-.051-.168-.151 0-.03.022-.249.063-.659s.087-.749.14-1.02" transform="translate(-90.726 -140.691)"/>
        <path id="패스_28486" data-name="패스 28486" class="cls-3" d="M199.872 287.289c.115 0 .352.01.709.028q.408.022.649.022l1.51-.04c.128 0 .192.044.192.135s-.058.127-.172.141a1.019 1.019 0 0 0-.518.148.859.859 0 0 0-.2.5 13.047 13.047 0 0 0-.071 1.768q0 1.584.05 2.447a2.47 2.47 0 0 0 .2 1.067.581.581 0 0 0 .5.2c.161 0 .241.043.241.129 0 .117-.087.177-.26.177-.049 0-.122 0-.217-.005q-.924-.066-1.265-.066a9.4 9.4 0 0 0-1.1.046 2.99 2.99 0 0 1-.265.02c-.122 0-.183-.049-.183-.145 0-.077.051-.121.153-.136a.835.835 0 0 0 .563-.238 1.777 1.777 0 0 0 .175-.879q.03-.7.029-2.166 0-1.549-.054-2.072a1.191 1.191 0 0 0-.179-.644.805.805 0 0 0-.48-.149c-.124-.011-.187-.063-.187-.156s.061-.131.182-.131" transform="translate(-97.809 -140.729)"/>
        <path id="패스_28487" data-name="패스 28487" class="cls-3" d="M210.08 287.142a3.578 3.578 0 0 1 1.739.406 3.068 3.068 0 0 1 1.2 1.175 3.259 3.259 0 0 1 .451 1.676 3.514 3.514 0 0 1-1.029 2.489 3.548 3.548 0 0 1-4.912.188 3.124 3.124 0 0 1-.981-2.426 3.5 3.5 0 0 1 3.537-3.508m1.717 3.408a4.179 4.179 0 0 0-.506-2.285 1.454 1.454 0 0 0-2.563 0 4.178 4.178 0 0 0-.507 2.283 4.376 4.376 0 0 0 .484 2.256 1.467 1.467 0 0 0 1.3.8 1.54 1.54 0 0 0 1.257-.724 3.993 3.993 0 0 0 .534-2.333" transform="translate(-101.175 -140.657)"/>
        <path id="패스_28488" data-name="패스 28488" class="cls-3" d="M221.883 287.277q2.355 2.731 3.93 4.381v-.441l.005-1.982a4.466 4.466 0 0 0-.079-1 .806.806 0 0 0-.335-.477 1.217 1.217 0 0 0-.595-.205c-.122-.014-.182-.066-.182-.156s.056-.145.167-.145a1.993 1.993 0 0 1 .241.017 7.862 7.862 0 0 0 .822.031c.452 0 .8-.011 1.033-.035.1-.009.181-.013.25-.013.126 0 .188.048.188.145s-.084.148-.251.165a1.017 1.017 0 0 0-.577.266 1.215 1.215 0 0 0-.269.926l.024 2.835-.035 2.133q0 .276-.166.276a.234.234 0 0 1-.1-.03 9.255 9.255 0 0 1-.676-.694q-.618-.664-1.835-2.06t-1.71-2q-.01.136-.01 2.522a8.49 8.49 0 0 0 .062 1.155.791.791 0 0 0 .384.607 1.181 1.181 0 0 0 .583.188c.112 0 .167.043.167.13s-.059.15-.178.15a2.581 2.581 0 0 1-.285-.02 5.725 5.725 0 0 0-.752-.04 8.908 8.908 0 0 0-1.062.044 2.593 2.593 0 0 1-.3.026c-.128 0-.192-.056-.192-.166 0-.08.1-.129.311-.145a.734.734 0 0 0 .7-.392 2.58 2.58 0 0 0 .14-.942q0-2.586-.028-3.163a1.931 1.931 0 0 0-.354-1.042 1.257 1.257 0 0 0-.79-.556c-.127-.024-.191-.075-.191-.156 0-.111.067-.165.2-.165.033 0 .08 0 .142.009s.212.01.409.01c.427 0 .823 0 1.191.015" transform="translate(-107.737 -140.706)"/>
        <path id="패스_28489" data-name="패스 28489" class="cls-3" d="M236.5 286.965h.336q.649 1.434 1.834 4.511a11.521 11.521 0 0 0 .751 1.714.907.907 0 0 0 .654.367c.1.014.149.057.149.131 0 .1-.065.156-.193.156q-.1 0-.536-.036-.51-.044-.861-.044t-.886.04a9.4 9.4 0 0 1-.536.03c-.151 0-.226-.048-.226-.145 0-.073.052-.115.157-.125q.605-.055.605-.484a2.9 2.9 0 0 0-.177-.739 9.452 9.452 0 0 0-.377-.977c-.215 0-.38-.005-.5-.005q-.992 0-1.544.005a6.1 6.1 0 0 0-.424 1.567.5.5 0 0 0 .212.427.931.931 0 0 0 .458.176c.125.014.188.065.188.156s-.068.135-.2.135q-.079 0-.413-.025-.433-.035-.63-.035a5.224 5.224 0 0 0-.737.05.9.9 0 0 1-.148.015c-.121 0-.183-.051-.183-.151a.144.144 0 0 1 .118-.145 1.426 1.426 0 0 0 .463-.209 1.51 1.51 0 0 0 .361-.479 7.986 7.986 0 0 0 .467-1.136q.611-1.755 1.82-4.742m-.348 1.75-.854 2.24 1.74-.026q-.138-.393-.423-1.077a53.3 53.3 0 0 1-.463-1.137" transform="translate(-114.267 -140.57)"/>
        <path id="패스_28490" data-name="패스 28490" class="cls-3" d="M252.035 293.962q-1.23-.066-3.828-.066-.905 0-1.471.055a3.076 3.076 0 0 1-.2.011c-.124 0-.188-.051-.188-.152a.1.1 0 0 1 .049-.1.9.9 0 0 1 .241-.058.92.92 0 0 0 .468-.183.758.758 0 0 0 .229-.412 8.652 8.652 0 0 0 .076-1.395q.01-1.123.01-2.669a3.241 3.241 0 0 0-.089-.9.688.688 0 0 0-.718-.548q-.212-.011-.212-.162c0-.1.08-.15.241-.15l1.633.049c.253 0 .6-.012 1.058-.039q.245-.011.335-.011c.138 0 .206.048.206.145a.115.115 0 0 1-.066.113 1.492 1.492 0 0 1-.332.073.859.859 0 0 0-.465.17.734.734 0 0 0-.182.438 12.261 12.261 0 0 0-.047 1.395v3.048a1.68 1.68 0 0 0 .123.836.589.589 0 0 0 .448.132 4.172 4.172 0 0 0 1.2-.128 2 2 0 0 0 .75-.464 4.244 4.244 0 0 0 .765-1.127c.056-.107.113-.16.172-.16.088 0 .132.049.132.145a19.4 19.4 0 0 1-.339 2.105" transform="translate(-120.673 -140.705)"/>
        <path id="패스_28491" data-name="패스 28491" class="cls-3" d="m268.4 287.388.25 1.514.011.069c0 .1-.034.146-.1.146-.044 0-.088-.037-.133-.11a3.16 3.16 0 0 0-.858-.935 2.755 2.755 0 0 0-1.542-.334q-.734 0-.824.158a14.855 14.855 0 0 0-.089 2.464 3.517 3.517 0 0 0 .839-.077.847.847 0 0 0 .453-.272 1.975 1.975 0 0 0 .292-.72c.023-.092.062-.139.114-.139.1 0 .147.064.147.191l-.034 1.6a6.059 6.059 0 0 1-.044.894.109.109 0 0 1-.108.062c-.083 0-.132-.067-.147-.2a1.24 1.24 0 0 0-.313-.737 1.776 1.776 0 0 0-1.2-.27l-.005 1.859a2.751 2.751 0 0 0 .077.777.524.524 0 0 0 .229.313 1.121 1.121 0 0 0 .478.092 1.037 1.037 0 0 1 .3.033.12.12 0 0 1 .065.123c0 .107-.074.161-.222.161s-.39-.012-.768-.036a12.44 12.44 0 0 0-.718-.03l-1.554.051c-.157 0-.236-.048-.236-.145s.1-.138.29-.145a.564.564 0 0 0 .6-.456 25.733 25.733 0 0 0 .1-3.162 9.525 9.525 0 0 0-.125-2.112.574.574 0 0 0-.613-.341l-.133.005q-.178 0-.178-.15t.286-.14z" transform="translate(-128.681 -140.777)"/>
        <path id="패스_28492" data-name="패스 28492" class="cls-3" d="M278 287.142a3.575 3.575 0 0 1 1.739.406 3.066 3.066 0 0 1 1.2 1.175 3.258 3.258 0 0 1 .45 1.676 3.512 3.512 0 0 1-1.028 2.489 3.547 3.547 0 0 1-4.912.188 3.124 3.124 0 0 1-.981-2.426 3.5 3.5 0 0 1 3.532-3.508m1.717 3.408a4.178 4.178 0 0 0-.507-2.285 1.454 1.454 0 0 0-2.563 0 4.178 4.178 0 0 0-.507 2.283 4.381 4.381 0 0 0 .485 2.256 1.465 1.465 0 0 0 1.3.8 1.539 1.539 0 0 0 1.256-.724 3.988 3.988 0 0 0 .534-2.333" transform="translate(-134.446 -140.657)"/>
        <path id="패스_28493" data-name="패스 28493" class="cls-3" d="m287.9 287.211 1.583.05c.152 0 .323-.009.517-.025.309-.023.551-.035.729-.035s.25.047.25.141-.065.138-.2.145a.662.662 0 0 0-.528.258 2.058 2.058 0 0 0-.224.977q-.05.74-.049 1.626a8.828 8.828 0 0 0 .133 1.913 1.333 1.333 0 0 0 .571.779 2.069 2.069 0 0 0 1.161.291 1.666 1.666 0 0 0 1.107-.318 1.718 1.718 0 0 0 .514-1 14.834 14.834 0 0 0 .14-2.528 4.6 4.6 0 0 0-.167-1.508.66.66 0 0 0-.571-.456c-.193-.02-.29-.079-.29-.174s.079-.146.236-.146c.075 0 .2.01.379.028s.375.022.576.022c.183 0 .389-.01.615-.029.17-.013.288-.021.355-.021.163 0 .246.049.246.146q0 .114-.178.135a.709.709 0 0 0-.444.232 1.183 1.183 0 0 0-.256.687q-.057.48-.057 2.459a5.069 5.069 0 0 1-.256 1.887 1.833 1.833 0 0 1-.893.907 3.475 3.475 0 0 1-1.587.323 5.417 5.417 0 0 1-1.275-.133 2.04 2.04 0 0 1-.858-.408 1.608 1.608 0 0 1-.458-.637 3.09 3.09 0 0 1-.14-1.061l.02-2.669a5.67 5.67 0 0 0-.062-.921.838.838 0 0 0-.194-.479.719.719 0 0 0-.4-.148.532.532 0 0 1-.214-.052.129.129 0 0 1-.042-.108c0-.1.071-.151.212-.151" transform="translate(-140.924 -140.686)"/>
        <path id="패스_28494" data-name="패스 28494" class="cls-3" d="M302.962 287.277q2.355 2.731 3.929 4.381c0-.227.006-.374.006-.441v-1.982a4.4 4.4 0 0 0-.079-1 .8.8 0 0 0-.334-.477 1.219 1.219 0 0 0-.6-.205c-.121-.014-.182-.066-.182-.156s.055-.145.167-.145a2.008 2.008 0 0 1 .242.017 7.85 7.85 0 0 0 .821.031c.452 0 .8-.011 1.033-.035.1-.009.182-.013.25-.013.125 0 .189.048.189.145s-.085.148-.252.165a1.02 1.02 0 0 0-.577.266 1.217 1.217 0 0 0-.268.926l.025 2.835-.034 2.133q0 .276-.167.276a.232.232 0 0 1-.1-.03 9.075 9.075 0 0 1-.676-.694q-.616-.664-1.834-2.06t-1.71-2q-.011.136-.01 2.522a8.252 8.252 0 0 0 .062 1.155.79.79 0 0 0 .384.607 1.176 1.176 0 0 0 .583.188q.167 0 .167.13 0 .151-.177.15a2.589 2.589 0 0 1-.286-.02 5.7 5.7 0 0 0-.752-.04 8.936 8.936 0 0 0-1.063.044 2.574 2.574 0 0 1-.294.026c-.129 0-.192-.056-.192-.166 0-.08.1-.129.31-.145.37-.031.6-.161.7-.392a2.556 2.556 0 0 0 .141-.942q0-2.586-.027-3.163a1.944 1.944 0 0 0-.354-1.042 1.257 1.257 0 0 0-.79-.556c-.128-.024-.191-.075-.191-.156 0-.111.067-.165.2-.165.032 0 .081 0 .142.009s.212.01.409.01c.425 0 .823 0 1.191.015" transform="translate(-147.454 -140.706)"/>
        <path id="패스_28495" data-name="패스 28495" class="cls-3" d="M318.834 293.973c-.144 0-.737-.011-1.775-.03l-1.082.005-.635-.011a.815.815 0 0 1-.283-.028c-.038-.017-.057-.058-.057-.121 0-.1.07-.146.212-.146a.984.984 0 0 0 .589-.14.739.739 0 0 0 .236-.517q.05-.376.091-1.5t.042-2.067a5.948 5.948 0 0 0-.126-1.632c-.083-.2-.29-.312-.621-.329-.118-.01-.177-.06-.177-.15s.052-.135.158-.135c.062 0 .274.018.634.055.4.037.679.056.836.056l1.866-.04a4.62 4.62 0 0 1 1.8.363 2.909 2.909 0 0 1 1.374 1.189 3.667 3.667 0 0 1 .212 3.311 3.181 3.181 0 0 1-1.984 1.725 5.288 5.288 0 0 1-1.309.143m-.335-.366a1.994 1.994 0 0 0 1.633-.737 3.266 3.266 0 0 0 .6-2.107 3.828 3.828 0 0 0-.647-2.29 2.128 2.128 0 0 0-1.837-.9 1.351 1.351 0 0 0-.49.048.223.223 0 0 0-.1.1q-.02.05-.059 1.124l-.059 1.7q-.015.628-.015 1.555a5.273 5.273 0 0 0 .059.961.653.653 0 0 0 .261.406 1.157 1.157 0 0 0 .654.143" transform="translate(-154.304 -140.671)"/>
        <path id="패스_28496" data-name="패스 28496" class="cls-3" d="M332.252 286.965h.336q.648 1.434 1.833 4.511a11.479 11.479 0 0 0 .752 1.714.907.907 0 0 0 .654.367c.1.014.149.057.149.131 0 .1-.065.156-.193.156-.068 0-.247-.012-.536-.036-.34-.03-.628-.044-.861-.044s-.521.013-.885.04a9.37 9.37 0 0 1-.537.03q-.226 0-.226-.145c0-.073.053-.115.157-.125q.606-.055.606-.484a2.875 2.875 0 0 0-.177-.739 9.329 9.329 0 0 0-.378-.977c-.214 0-.38-.005-.5-.005q-.991 0-1.544.005a6.149 6.149 0 0 0-.424 1.567.5.5 0 0 0 .212.427.932.932 0 0 0 .458.176c.124.014.187.065.187.156s-.067.135-.2.135q-.079 0-.413-.025-.433-.035-.631-.035a5.236 5.236 0 0 0-.738.05.882.882 0 0 1-.147.015q-.183 0-.183-.151a.144.144 0 0 1 .118-.145 1.432 1.432 0 0 0 .463-.209 1.518 1.518 0 0 0 .361-.479 7.886 7.886 0 0 0 .466-1.136q.612-1.755 1.82-4.742m-.347 1.75-.854 2.24 1.739-.026q-.138-.393-.423-1.077-.308-.742-.462-1.137" transform="translate(-161.173 -140.57)"/>
        <path id="패스_28497" data-name="패스 28497" class="cls-3" d="M340.133 287.217q2.556.07 3.782.07.93 0 2.048-.055c.265-.014.483-.02.654-.02h.329q.036.205.09.847l.073.792q0 .2-.161.2-.122 0-.236-.24a2.355 2.355 0 0 0-.48-.7 1.441 1.441 0 0 0-.68-.386 6.02 6.02 0 0 0-1.276-.1 19.146 19.146 0 0 0-.08 1.92q0 1.178.045 2.273a8.557 8.557 0 0 0 .109 1.321.564.564 0 0 0 .215.33 1.726 1.726 0 0 0 .719.146c.128.01.191.057.191.14s-.055.14-.168.14h-.137l-1.019-.025c-.8 0-1.278 0-1.448.01l-.621.025c-.049 0-.151 0-.305-.01a.123.123 0 0 1-.113-.125c0-.1.062-.145.186-.145a1 1 0 0 0 .66-.186.879.879 0 0 0 .272-.588q.052-.4.052-1.752 0-2.13-.128-3.468a7.011 7.011 0 0 0-1.173.068 1.426 1.426 0 0 0-.7.37 2.265 2.265 0 0 0-.546.785c-.056.127-.12.19-.191.19-.112 0-.168-.051-.168-.151q0-.044.062-.659t.139-1.02" transform="translate(-166.515 -140.691)"/>
        <path id="패스_28498" data-name="패스 28498" class="cls-3" d="M354.876 287.289c.115 0 .35.01.708.028q.408.022.649.022l1.511-.04c.128 0 .191.044.191.135s-.056.127-.172.141a1.013 1.013 0 0 0-.518.148.866.866 0 0 0-.2.5 13.169 13.169 0 0 0-.071 1.768q0 1.584.049 2.447a2.475 2.475 0 0 0 .2 1.067.58.58 0 0 0 .5.2c.162 0 .242.043.242.129 0 .117-.087.177-.261.177-.048 0-.121 0-.216-.005q-.925-.066-1.264-.066a9.433 9.433 0 0 0-1.1.046c-.124.013-.212.02-.265.02-.121 0-.182-.049-.182-.145 0-.077.051-.121.152-.136a.837.837 0 0 0 .564-.238 1.775 1.775 0 0 0 .176-.879q.028-.7.029-2.166 0-1.549-.053-2.072a1.192 1.192 0 0 0-.181-.644.805.805 0 0 0-.48-.149c-.124-.011-.187-.063-.187-.156s.061-.131.182-.131" transform="translate(-173.737 -140.729)"/>
        <path id="패스_28499" data-name="패스 28499" class="cls-3" d="M365.089 287.142a3.58 3.58 0 0 1 1.74.406 3.071 3.071 0 0 1 1.2 1.175 3.262 3.262 0 0 1 .449 1.676 3.517 3.517 0 0 1-1.027 2.489 3.548 3.548 0 0 1-4.912.188 3.124 3.124 0 0 1-.982-2.426 3.5 3.5 0 0 1 3.537-3.508m1.717 3.408a4.183 4.183 0 0 0-.507-2.285 1.454 1.454 0 0 0-2.563 0 4.182 4.182 0 0 0-.507 2.283 4.386 4.386 0 0 0 .485 2.256 1.466 1.466 0 0 0 1.3.8 1.543 1.543 0 0 0 1.258-.724 3.992 3.992 0 0 0 .534-2.333" transform="translate(-177.106 -140.657)"/>
        <path id="패스_28500" data-name="패스 28500" class="cls-3" d="M377.18 287.277q2.355 2.731 3.931 4.381c0-.227.006-.374.006-.441v-1.982a4.453 4.453 0 0 0-.08-1 .806.806 0 0 0-.335-.477 1.213 1.213 0 0 0-.595-.205c-.121-.014-.182-.066-.182-.156s.056-.145.167-.145a2 2 0 0 1 .241.017 7.861 7.861 0 0 0 .822.031c.453 0 .8-.011 1.033-.035.1-.009.182-.013.25-.013.125 0 .188.048.188.145s-.084.148-.251.165a1.02 1.02 0 0 0-.577.266 1.219 1.219 0 0 0-.268.926l.025 2.835-.034 2.133q0 .276-.168.276a.236.236 0 0 1-.1-.03 9.377 9.377 0 0 1-.676-.694q-.617-.664-1.835-2.06t-1.709-2q-.01.136-.01 2.522a8.342 8.342 0 0 0 .061 1.155.793.793 0 0 0 .385.607 1.179 1.179 0 0 0 .583.188c.111 0 .167.043.167.13s-.06.15-.178.15a2.55 2.55 0 0 1-.285-.02 5.723 5.723 0 0 0-.753-.04 8.94 8.94 0 0 0-1.063.044 2.565 2.565 0 0 1-.294.026c-.129 0-.192-.056-.192-.166 0-.08.1-.129.311-.145q.555-.046.7-.392a2.568 2.568 0 0 0 .14-.942q0-2.586-.028-3.163a1.935 1.935 0 0 0-.353-1.042 1.259 1.259 0 0 0-.79-.556c-.129-.024-.192-.075-.192-.156 0-.111.067-.165.2-.165.032 0 .08 0 .143.009s.211.01.408.01q.64 0 1.19.015" transform="translate(-183.81 -140.706)"/>
        <path id="패스_28501" data-name="패스 28501" class="cls-3" d="M50.518 243.329a10.146 10.146 0 0 0 2.435 2.436 15.77 15.77 0 0 0 3.147 1.861l1.562-1.906a10.245 10.245 0 0 1-3.721-2.848 7.485 7.485 0 0 1-1.723-4.824h4.227v-2.435H44.729v2.435h4.112a7.7 7.7 0 0 1-1.608 4.824 9.224 9.224 0 0 1-3.7 2.848l1.378 1.906a16.112 16.112 0 0 0 3.194-1.861 9.747 9.747 0 0 0 2.411-2.436" transform="translate(-21.326 -115.414)"/>
        <path id="패스_28502" data-name="패스 28502" class="cls-3" d="M65.234 261.862a10.1 10.1 0 0 0-5.874-1.5 10.08 10.08 0 0 0-5.835 1.5 3.993 3.993 0 0 0-1.9 3.328 3.917 3.917 0 0 0 1.9 3.281 10.026 10.026 0 0 0 5.835 1.5 10.066 10.066 0 0 0 5.854-1.5 3.79 3.79 0 0 0 .02-6.609m-2.245 4.851a7.594 7.594 0 0 1-3.629.727 7.364 7.364 0 0 1-3.568-.727 1.625 1.625 0 0 1 0-3.117 7.561 7.561 0 0 1 3.568-.7 7.8 7.8 0 0 1 3.629.7 1.834 1.834 0 0 1 1.183 1.571q0 .913-1.183 1.546" transform="translate(-25.287 -127.538)"/>
        <path id="패스_28503" data-name="패스 28503" class="cls-3" d="M95.487 236.7a5.276 5.276 0 0 0-4.686 2.7 11.753 11.753 0 0 0-1.539 6.3 12.556 12.556 0 0 0 1.539 6.586 5.221 5.221 0 0 0 4.686 2.76 5.152 5.152 0 0 0 4.64-2.76 12.4 12.4 0 0 0 1.562-6.586 11.613 11.613 0 0 0-1.562-6.3 5.2 5.2 0 0 0-4.64-2.7m2.068 13.826q-.735 1.964-2.091 1.965-1.379 0-2.114-1.965a14.454 14.454 0 0 1-.666-4.836 12.936 12.936 0 0 1 .666-4.528q.758-1.908 2.114-1.908 1.331 0 2.091 1.908a12.554 12.554 0 0 1 .689 4.528 14.023 14.023 0 0 1-.689 4.836" transform="translate(-43.725 -115.948)"/>
        <path id="패스_28504" data-name="패스 28504" class="cls-3" d="M117.475 234.711h-1.161a2.842 2.842 0 0 1 1.161 1.611v20.488h3.4v-22.1z" transform="translate(-56.976 -114.973)"/>
        <path id="패스_28505" data-name="패스 28505" class="cls-3" d="M143.762 250.065h-3.377v2.435h-8.476v2.481H151.8V252.5h-8.04z" transform="translate(-64.616 -122.495)"/>
        <path id="패스_28506" data-name="패스 28506" class="cls-3" d="M137.945 240.6a16.605 16.605 0 0 1-5.812 1.287l1.287 2.021a29.873 29.873 0 0 0 5.215-1.011 8.275 8.275 0 0 0 3.216-1.607 8.019 8.019 0 0 0 3.124 1.607 28.149 28.149 0 0 0 5.425 1.003l1.47-2a18.52 18.52 0 0 1-5.926-1.286q-2.412-1.056-2.412-2.481h7.029v-2.527h-17.118v2.527h6.708q0 1.446-2.205 2.458" transform="translate(-64.725 -115.415)"/>
        <path id="패스_28507" data-name="패스 28507" class="cls-3" d="M149.638 262.581a13.661 13.661 0 0 0-12.215 0 3.5 3.5 0 0 0 0 6.353 13.657 13.657 0 0 0 12.215 0 3.488 3.488 0 0 0 0-6.353m-2.439 4.5a8.953 8.953 0 0 1-3.636.611 9.318 9.318 0 0 1-3.723-.611q-1.22-.536-1.219-1.319t1.219-1.32a9.665 9.665 0 0 1 3.723-.587 9.285 9.285 0 0 1 3.636.587q1.241.537 1.241 1.32t-1.241 1.319" transform="translate(-66.325 -127.92)"/>
        <path id="패스_28508" data-name="패스 28508" class="cls-3" d="M269.594 242.227a12.746 12.746 0 0 0 11.619 0 3.583 3.583 0 0 0 0-6.363 12.922 12.922 0 0 0-11.619 0 3.6 3.6 0 0 0 0 6.363m2.3-4.6a8.555 8.555 0 0 1 3.474-.573 8.706 8.706 0 0 1 3.493.573q1.157.552 1.158 1.425 0 .85-1.158 1.4a8.388 8.388 0 0 1-3.493.6 8.244 8.244 0 0 1-3.474-.6q-1.159-.552-1.158-1.4 0-.872 1.158-1.425" transform="translate(-131.122 -114.862)"/>
        <path id="패스_28509" data-name="패스 28509" class="cls-3" d="M263.321 256.374H268v2.481h-3.553v2.5h14.242v4.824h3.4v-7.328h-3.414v-2.481h4.541v-2.481h-19.895zm8.078 0h3.876v2.481H271.4z" transform="translate(-128.988 -124.37)"/>
        <path id="패스_28510" data-name="패스 28510" class="cls-3" d="M313.67 248.638a12.137 12.137 0 0 1-1.217-5.421v-4.643h2.8v-2.434H306.2v2.434h2.848v4.689a12.914 12.914 0 0 1-1.126 5.444 9.247 9.247 0 0 1-2.917 3.722l1.608 1.86a11.565 11.565 0 0 0 2.688-2.641 11.128 11.128 0 0 0 1.447-2.894 8.415 8.415 0 0 0 1.333 2.779 14.521 14.521 0 0 0 2.687 2.756l2-1.86a11.239 11.239 0 0 1-3.1-3.79" transform="translate(-149.409 -115.673)"/>
        <path id="패스_28511" data-name="패스 28511" class="cls-3" d="M18.882 234.711h-4.6a2.657 2.657 0 0 1 1.2 1.995v8.6H6.156v-4.157H1.588a2.828 2.828 0 0 1 1.169 1.655v2.5H0v2.482h15.483v2.914h3.4v-7.1H21.2v-2.619h-2.32z" transform="translate(0 -114.973)"/>
        <path id="패스_28512" data-name="패스 28512" class="cls-3" d="M9.824 244.546H13.2v-7.881H1.532v2.5h8.292z" transform="translate(-.75 -115.93)"/>
        <path id="패스_28513" data-name="패스 28513" class="cls-3" d="M10.194 263.516H5.622a2.81 2.81 0 0 1 1.172 1.676v5.5h14.98v-2.481h-11.58z" transform="translate(-2.754 -129.083)"/>
        <path id="패스_28514" data-name="패스 28514" class="cls-3" d="M183.545 265.556h-4.6a2.713 2.713 0 0 1 1.2 1.887v4.246h15.921v-2.481h-12.521z" transform="translate(-87.658 -130.083)"/>
        <path id="패스_28515" data-name="패스 28515" class="cls-3" d="M194.078 234.6h-4.561a2.837 2.837 0 0 1 1.161 1.612v10.724h-6.646v-1.626a8.411 8.411 0 0 0 3.193-.947 3.644 3.644 0 0 0 1.723-1.791 2.98 2.98 0 0 0-.39-2.642 4.659 4.659 0 0 0-2.826-1.7h3.308v-2.435h-5.1v-1.31h-4.435a3.034 3.034 0 0 1 1.036 1.215v.095h-4.824v2.435h3.124a4.522 4.522 0 0 0-2.757 1.7 2.894 2.894 0 0 0-.344 2.642 3.488 3.488 0 0 0 1.585 1.745 8.534 8.534 0 0 0 3.331 1.034h-.023v1.585h-5.46v2.412h15.506v1.975h3.4v-6.616h2.343v-2.572h-2.343zm-14.178 7.879a1.334 1.334 0 0 1-.758-1.148 1.31 1.31 0 0 1 .827-1.1 5.157 5.157 0 0 1 2.48-.506 5.026 5.026 0 0 1 2.413.482 1.287 1.287 0 0 1 .8 1.126 1.368 1.368 0 0 1-.85 1.148 4.808 4.808 0 0 1-2.481.551 4.624 4.624 0 0 1-2.434-.551" transform="translate(-85.808 -114.862)"/>
        <path id="패스_28516" data-name="패스 28516" class="cls-3" d="M233.279 260.417h-.494v-9.029h-4.564a2.831 2.831 0 0 1 1.164 1.629v7.4h-2.665v-9.029h-4.606a2.657 2.657 0 0 1 1.2 1.995v7.038h-3.579v2.435h19.664v-2.435h-6.127z" transform="translate(-107.641 -123.143)"/>
        <path id="패스_28517" data-name="패스 28517" class="cls-3" d="M235.966 250.164h3.4v-13.072h-17.642v2.71h14.242z" transform="translate(-108.611 -116.14)"/>
        <path id="패스_28518" data-name="패스 28518" class="cls-3" d="M360.609 263.394h-4.593a2.735 2.735 0 0 1 1.192 1.839v5.4h14.981v-2.482h-11.58z" transform="translate(-174.395 -129.024)"/>
        <path id="패스_28519" data-name="패스 28519" class="cls-3" d="M370.7 241.441v-6.73h-4.571a2.809 2.809 0 0 1 1.171 1.67v7.87h-10.648v-6.377h7.866v-2.434h-11.267v11.223H367.3v4.082h3.4v-6.685h2.343v-2.618z" transform="translate(-173.04 -114.973)"/>
        <path id="패스_28520" data-name="패스 28520" class="cls-3" d="m71.267 236.706.011-.011v2.978h-3.653v2.435h3.653v5.169h3.4v-12.566h-4.612a2.657 2.657 0 0 1 1.2 1.995" transform="translate(-33.126 -114.973)"/>
        <path id="패스_28521" data-name="패스 28521" class="cls-3" d="M332.274 234.711h-1.149a2.865 2.865 0 0 1 1.149 1.55v7.455h-1.791v-9h-4.563a2.772 2.772 0 0 1 1.186 1.753v20.341h3.377v-10.521h1.791v10.521h3.354v-22.1h-3.354z" transform="translate(-159.652 -114.973)"/>
        <path id="패스_28522" data-name="패스 28522" class="cls-3" d="M200.006 52.7A52.71 52.71 0 1 1 147.292 0a52.709 52.709 0 0 1 52.714 52.7" transform="translate(-46.333)"/>
        <path id="패스_28523" data-name="패스 28523" class="cls-4" d="M170.508 50.352a3.325 3.325 0 0 0-.645-1.753l-.715.384-1.259-.983a1.955 1.955 0 0 1-1-.34 1.706 1.706 0 0 1 1.139-.562 4.3 4.3 0 0 0-1.616-2.081 2.316 2.316 0 0 1-.69-.379c.359-.731 1.287-.3 1.708-.134s2.34 1.05 3.45 4.676l-.007-2.174a8.684 8.684 0 0 0-1.792-2.551.832.832 0 0 1 1.318.028 2.817 2.817 0 0 1 .894-2.069 2.557 2.557 0 0 1 .866 2.069c.47-.471.8-.421 1.195-.028a9.477 9.477 0 0 0-1.869 2.614v2.094c1.026-3.345 2.987-4.244 3.409-4.413s1.369-.39 1.678-.013a1.64 1.64 0 0 1-.675.462 12.86 12.86 0 0 0-1.63 1.9 2.538 2.538 0 0 1 1.138.562 1.583 1.583 0 0 1-1 .239l-1.288 1.1-.682-.4a3.254 3.254 0 0 0-.765 1.736c2.418 1.4 5.565 3.036 12.929 4.722a116.877 116.877 0 0 0 14.673 2.418 21.2 21.2 0 0 0-3.317 2.7 7.647 7.647 0 0 0-1.912 4.947v21.528a13.011 13.011 0 0 1-2.193 6.409 16.291 16.291 0 0 1-10.343 6.522c-5.791 1.237-6.842 1.3-10.438 5.4-3.6-4.1-4.7-4.166-10.489-5.4a16.3 16.3 0 0 1-10.344-6.522 13.011 13.011 0 0 1-2.193-6.409V65.12a7.65 7.65 0 0 0-1.911-4.947 21.19 21.19 0 0 0-3.317-2.7 116.891 116.891 0 0 0 14.673-2.418c8.437-1.931 11.577-3.865 13.02-4.705" transform="translate(-69.958 -20.779)"/>
        <path id="패스_28524" data-name="패스 28524" class="cls-3" d="M176.884 59.809a51.634 51.634 0 0 0 10.541 4.891 100.086 100.086 0 0 0 11.749 3.091s-2.361 2.138-2.361 4.273-.224 20.632-.224 23.443a10.177 10.177 0 0 1-4.1 8.208c-3.092 2.53-6.015 3.2-8.938 3.824s-5.256 1.292-6.662 2.7c-1.405-1.406-3.735-2.081-6.658-2.7s-5.847-1.293-8.939-3.824a10.18 10.18 0 0 1-4.1-8.208c0-2.811-.224-21.307-.224-23.443s-2.361-4.273-2.361-4.273a100.049 100.049 0 0 0 11.739-3.091 51.546 51.546 0 0 0 10.538-4.891" transform="translate(-75.729 -29.297)"/>
        <path id="패스_28525" data-name="패스 28525" class="cls-4" d="M199.122 91.64s.168-.231-1.308-.231a8.786 8.786 0 0 0-3.141.485 2.855 2.855 0 0 0-1.074 1.624c-.253.737-2.277 2.424-3.12 2.951s-2.868 1.855-3.226.232.4-4.174.927-5.629c.37-1.02 1.517-3.709 2.17-5.224a1.708 1.708 0 1 0-1.763-1.708 1.68 1.68 0 0 0 .511 1.2c-.192.423-.451.962-.769 1.553-.738 1.37-4.006 7.295-6.008 7.168-1.875-.118-2.328-7.276-2.464-11.545a1.784 1.784 0 0 0 .87.227 1.709 1.709 0 1 0 0-3.416h-.018a1.665 1.665 0 0 0 .07-.475 1.752 1.752 0 0 0-3.5 0 1.655 1.655 0 0 0 .071.479c-.031 0-.061-.005-.092-.005a1.709 1.709 0 1 0 0 3.416 1.786 1.786 0 0 0 .974-.288c-.083 11-2.023 11.565-2.465 11.67-1.544.366-5.009-5.029-6.88-8.76a1.677 1.677 0 0 0 .538-1.229 1.755 1.755 0 1 0-1.539 1.695 26.811 26.811 0 0 1 2.042 5.343c1.287 4.364 1.055 5.84.4 6.177s-1.665-.126-2.762-.865a10.289 10.289 0 0 1-3.183-3.33 2.328 2.328 0 0 0-2.361-1.623c-1.434-.127-2.666-.264-3.1.168a24.555 24.555 0 0 1 3.035 1.792 25.163 25.163 0 0 1 7.083 8.6h20.008a25.8 25.8 0 0 1 2.972-4.659c1.6-1.855 4.006-4.132 5.65-4.87s1.455-.928 1.455-.928" transform="translate(-77.847 -37.791)"/>
        <path id="패스_28526" data-name="패스 28526" class="cls-4" d="M180.2 142.789h18.488a3.975 3.975 0 0 1-2.3 1.835H182.52a3.074 3.074 0 0 1-2.319-1.835" transform="translate(-88.272 -69.945)"/>
        <path id="패스_28527" data-name="패스 28527" class="cls-4" d="M196.624 129.582a1.8 1.8 0 0 1 1.051.948h.38a2.4 2.4 0 0 0-.206-1.158v-.034h-5.565v.243h.342a.69.69 0 0 1 .681.6v3.271c-.058.538-.293.624-.926.633h-.081v.241h3.848v-.242h-.384c-.661-.009-.888-.1-.934-.7v-1.437h2.119l.339.59h.388v-1.617h-.365l-.359.622h-2.123v-1.961zm-16.673 1.792 3.141-1.792h.663v-.243h-3.109v.243h.98l-2.835 2.043h-.327v-1.451c.059-.64.839-.584 1.013-.591v-.243h-3.6v.243h.217c.352.016.769.108.838.6v3.288c-.1.587-.685.61-1.054.61v.242h3.6v-.242h-1.013v-2.09h.316l2.71 2.333h2.519v-.242h-.572zm9.626 2.711h-2.152v-2.142h1.908l.34.59h.388v-1.613h-.365l-.358.622h-1.912v-1.961h1.794a1.8 1.8 0 0 1 1.052.948h.38a2.38 2.38 0 0 0-.222-1.191h-5.566v.243h.28c.33.016.689.107.753.575v3.264a.687.687 0 0 1-.739.663h-.368v.242h5.966v-.081a2.714 2.714 0 0 0 .506-1.217h-.495a1.987 1.987 0 0 1-1.189 1.055" transform="translate(-86.156 -63.357)"/>
        <path id="패스_28528" data-name="패스 28528" class="cls-4" d="M150.369 105.29a49.5 49.5 0 1 1 .014 0zm-24.746-74.255a35 35 0 1 0 24.747-10.25 34.852 34.852 0 0 0-24.747 10.25" transform="translate(-49.41 -3.076)"/>
        <path id="패스_28529" data-name="패스 28529" class="cls-3" d="M129.486 152.034c-.643.28-1.811.783-2.931 1.317s-1.764.848-1.932.942a2.45 2.45 0 0 0-.439.311.739.739 0 0 0-.292.536.635.635 0 0 0 .125.421c.118.154.135.268.047.347s-.2.062-.315-.066l-.626-.748a9.189 9.189 0 0 0-.7-.706 4.626 4.626 0 0 1-.23-.22c-.1-.112-.1-.211 0-.3s.19-.065.31.04a.838.838 0 0 0 .4.2 1.961 1.961 0 0 0 .726-.074 13.193 13.193 0 0 0 1.945-.78l2.684-1.075 3.093-1.221-.007 1.135c-.1.214-.99 1.463-1.523 2.434l3.779-1.1.1 1.007s-2.371 4.24-3.089 5.586a8.158 8.158 0 0 0-.752 1.623c-.017.223.248.425.329.6a.217.217 0 0 1-.036.275.161.161 0 0 1-.157.051.911.911 0 0 1-.266-.237s-1.775-1.775-1.93-1.947a.182.182 0 0 1 .012-.29c.095-.085.2-.07.323.043s.334.111.613-.228a8.047 8.047 0 0 0 .782-1.307c.108-.211.573-1.191 1.379-2.7.476-.894.686-1.233.575-1.343s-.508.031-.842.134a3.184 3.184 0 0 0-.939.326 11.222 11.222 0 0 0-1.05 1.546 14.773 14.773 0 0 0-1.087 2.075 1.2 1.2 0 0 0-.038.807.2.2 0 0 1-.024.278.148.148 0 0 1-.158.045 1.9 1.9 0 0 1-.367-.356l-.651-.815c-.279-.409.3-1.432.3-1.432l.744-1.438s-.119-.113-1.128.327a4.077 4.077 0 0 0-.795.418.512.512 0 0 0-.181.287.365.365 0 0 0 .1.35.165.165 0 0 1 .006.23c-.045.046-.129.052-.254-.072s-.341-.347-.479-.485-.321-.338-.321-.49.361-.328.749-.423 1.28-.412 1.748-.53a4.021 4.021 0 0 0 .959-.294 14.789 14.789 0 0 0 .937-1.471l.789-1.54" transform="translate(-59.819 -73.946)"/>
        <path id="패스_28530" data-name="패스 28530" class="cls-3" d="m119.152 145.946-.19-.315q1.238-1.581 4.014-4.781a16.777 16.777 0 0 0 1.493-1.868.976.976 0 0 0 .039-.862.164.164 0 0 1 .062-.228.183.183 0 0 1 .283.074c.039.064.128.241.265.527a9.206 9.206 0 0 0 .439.838q.192.318.547.8c.177.242.289.4.338.484.086.14.074.244-.034.31-.083.049-.159.03-.23-.063q-.406-.529-.887-.239a4.539 4.539 0 0 0-.727.668q-.5.53-.881 1.017c.118.2.21.36.278.47q.564.931.882 1.446a9.33 9.33 0 0 0 2-.665.7.7 0 0 0 .358-.489.936.936 0 0 0-.062-.549.2.2 0 0 1 .068-.281c.1-.061.189-.029.266.1.03.049.1.185.207.405.138.286.244.491.318.614a4.8 4.8 0 0 0 .476.659.933.933 0 0 1 .1.128.175.175 0 0 1-.065.273.183.183 0 0 1-.23-.011 1.473 1.473 0 0 0-.5-.292 2 2 0 0 0-.742-.014 11.691 11.691 0 0 0-1.537.335q-2.313.617-6.348 1.511m2.158-.862 3-.719-1.016-1.614q-.363.4-.969 1.128-.654.794-1.011 1.2" transform="translate(-58.274 -67.528)"/>
        <path id="패스_28531" data-name="패스 28531" class="cls-3" d="M111.632 134.343q2.4-3.7 3.79-6.094c-.279.1-.459.171-.54.2l-2.422.936a6.93 6.93 0 0 0-1.195.556 1.073 1.073 0 0 0-.451.569 1.2 1.2 0 0 0-.015.706.194.194 0 0 1-.118.26.165.165 0 0 1-.243-.1 1.78 1.78 0 0 1-.073-.255 7.1 7.1 0 0 0-.287-.855 10 10 0 0 0-.455-1.039 2.624 2.624 0 0 1-.116-.25.175.175 0 0 1 .1-.259c.114-.045.215.015.3.177a1.038 1.038 0 0 0 .554.465 1.8 1.8 0 0 0 1.238-.165l3.452-1.369 2.62-.976c.224-.086.359-.074.4.04a.228.228 0 0 1 0 .12 10.888 10.888 0 0 1-.579 1.02q-.566.946-1.788 2.852t-1.767 2.7q.17-.053 3.083-1.185a13.125 13.125 0 0 0 1.386-.611 1.068 1.068 0 0 0 .589-.68 1.157 1.157 0 0 0 0-.685.157.157 0 0 1 .093-.233.173.173 0 0 1 .254.109 2.533 2.533 0 0 1 .089.3 5.27 5.27 0 0 0 .249.787 8.09 8.09 0 0 0 .477 1.065 2.637 2.637 0 0 1 .147.289.19.19 0 0 1-.126.276c-.1.037-.2-.045-.3-.249a.8.8 0 0 0-.755-.525 3.943 3.943 0 0 0-1.205.3q-3.159 1.227-3.852 1.528a2.859 2.859 0 0 0-1.132.856 1.4 1.4 0 0 0-.366 1.07c.021.141-.016.232-.113.269a.194.194 0 0 1-.283-.128 1.329 1.329 0 0 1-.044-.151 4.838 4.838 0 0 0-.15-.421q-.253-.654-.454-1.224" transform="translate(-53.631 -62.11)"/>
        <path id="패스_28532" data-name="패스 28532" class="cls-3" d="m107.578 122.193-.495-1.49c-.048-.166-.012-.266.11-.3s.2.028.253.185a.653.653 0 0 0 .407.425 3.412 3.412 0 0 0 1.391-.206q1.11-.3 2.087-.585l1.3-.395a5.306 5.306 0 0 1 1.911-.3 2.318 2.318 0 0 1 1.2.5 2.107 2.107 0 0 1 .735 1.085 1.626 1.626 0 0 1-.085 1.268 1.427 1.427 0 0 1-.888.728 1.132 1.132 0 0 1-.746-.024.747.747 0 0 1-.474-.515.686.686 0 0 1 .076-.605.852.852 0 0 1 .48-.351 1.483 1.483 0 0 1 .562 0 1.039 1.039 0 0 0 .394.007.322.322 0 0 0 .212-.152.354.354 0 0 0 .007-.266.638.638 0 0 0-.655-.442 9.676 9.676 0 0 0-2.422.524q-3.91 1.155-4.357 1.382t-.263.922c.038.142 0 .23-.113.263s-.211-.02-.256-.172c-.011-.034-.039-.161-.088-.379a20.62 20.62 0 0 0-.281-1.1" transform="translate(-52.445 -58.544)"/>
        <path id="패스_28533" data-name="패스 28533" class="cls-3" d="M105.21 106.913q.995-.3 1.991-.593c.125-.016.194.028.208.131q.011.086-.158.214a3.951 3.951 0 0 0-1.159 1.171 2.366 2.366 0 0 0-.146 1.36 4.391 4.391 0 0 0 .216.918q1.162-.047 2.534-.221c.156-.018.418-.055.786-.109l-.045-.409a1.552 1.552 0 0 0-.209-.639 1.056 1.056 0 0 0-.6-.4 3.9 3.9 0 0 0-.558-.153c-.143-.014-.219-.061-.229-.139a.136.136 0 0 1 .137-.17.642.642 0 0 1 .106 0 24.061 24.061 0 0 0 2.425-.24 2.733 2.733 0 0 0 .5-.106.947.947 0 0 1 .11-.026.159.159 0 0 1 .2.149c.009.079-.1.154-.323.225a1.492 1.492 0 0 0-.86.6 1.925 1.925 0 0 0-.178 1.244q1.1-.11 1.443-.154 1.486-.187 1.761-.26a.655.655 0 0 0 .419-.33 1.41 1.41 0 0 0 .072-.82 2.614 2.614 0 0 0-1.914-2.484c-.155-.041-.238-.1-.246-.169a.138.138 0 0 1 .137-.174 1.56 1.56 0 0 1 .271 0l1.914.113.236 1.939q.1.819.146 1.532t.1 1.116q.057.449.235 1.347a1.541 1.541 0 0 1 .034.164c.021.167-.036.259-.17.277s-.191-.045-.208-.181a.721.721 0 0 0-.43-.656 3.541 3.541 0 0 0-1.418 0l-3.357.389q-1.719.217-2.108.3a.837.837 0 0 0-.511.253 1.146 1.146 0 0 0-.141.588.191.191 0 0 1-.381.02l-.115-1.3z" transform="translate(-51.537 -51.594)"/>
        <path id="패스_28534" data-name="패스 28534" class="cls-3" d="M105.149 93.829a3.407 3.407 0 0 1 .654-1.868 3.748 3.748 0 0 1 1.62-1.21 4.926 4.926 0 0 1 2.224-.352 5.1 5.1 0 0 1 3.181 1.334 3.437 3.437 0 0 1 1.24 2.879 3.388 3.388 0 0 1-1.339 2.511 4.522 4.522 0 0 1-3.24.871 4.942 4.942 0 0 1-3.166-1.319 3.444 3.444 0 0 1-1.173-2.846m4.577-1.592a6.352 6.352 0 0 0-3.024.363 1.484 1.484 0 0 0-.177 2.8 6.341 6.341 0 0 0 2.949.746 6.679 6.679 0 0 0 2.983-.34 1.6 1.6 0 0 0 1.141-1.357 1.657 1.657 0 0 0-.859-1.436 6.055 6.055 0 0 0-3.013-.78" transform="translate(-51.503 -44.276)"/>
        <path id="패스_28535" data-name="패스 28535" class="cls-3" d="M106.571 78.658q4.106-1.622 6.625-2.76a38.156 38.156 0 0 0-.558-.147l-2.516-.646a6.9 6.9 0 0 0-1.3-.241 1.077 1.077 0 0 0-.7.2 1.207 1.207 0 0 0-.422.566.194.194 0 0 1-.246.143.165.165 0 0 1-.139-.225 1.9 1.9 0 0 1 .088-.249 7.338 7.338 0 0 0 .263-.863 10.277 10.277 0 0 0 .233-1.11 2.583 2.583 0 0 1 .051-.271c.033-.132.112-.183.235-.151s.166.137.142.32a1.042 1.042 0 0 0 .181.7 1.811 1.811 0 0 0 1.1.583l3.6.89 2.7.726q.349.09.3.267a.215.215 0 0 1-.066.1 10.862 10.862 0 0 1-1.064.5q-1.01.44-3.111 1.283t-3 1.17q.169.054 3.2.825a13.349 13.349 0 0 0 1.483.309 1.066 1.066 0 0 0 .873-.213 1.154 1.154 0 0 0 .4-.558c.03-.118.1-.163.21-.136a.173.173 0 0 1 .143.236 2.269 2.269 0 0 1-.1.3 5.308 5.308 0 0 0-.255.787 8.115 8.115 0 0 0-.23 1.144 2.713 2.713 0 0 1-.048.322.189.189 0 0 1-.262.15c-.1-.026-.135-.151-.1-.376a.794.794 0 0 0-.309-.866 3.976 3.976 0 0 0-1.158-.455q-3.284-.834-4.022-.992a2.873 2.873 0 0 0-1.42.039 1.4 1.4 0 0 0-.92.659q-.1.193-.249.154a.193.193 0 0 1-.155-.268 1.375 1.375 0 0 1 .051-.148 4.95 4.95 0 0 0 .123-.431q.173-.68.341-1.26" transform="translate(-51.946 -35.708)"/>
        <path id="패스_28536" data-name="패스 28536" class="cls-3" d="m115.446 58.774 1.789.671c.082.031.147.058.194.08.123.058.164.131.123.218s-.14.116-.3.106a4.829 4.829 0 0 0-2.029.269 2.214 2.214 0 0 0-1.275 1.149 1.992 1.992 0 0 0 .293 2.133 5.649 5.649 0 0 0 2.235 1.773 5.4 5.4 0 0 0 2.953.6 2.037 2.037 0 0 0 1.754-1.049 1.758 1.758 0 0 0 .149-.863 1.2 1.2 0 0 0-.217-.71 1.888 1.888 0 0 0-.64-.436 7.413 7.413 0 0 0-1.275-.521.614.614 0 0 0-.445.057 2.015 2.015 0 0 0-.451.542c-.072.114-.159.146-.258.1a.167.167 0 0 1-.091-.252l.348-.738 1-2.281a.15.15 0 0 1 .226-.079.142.142 0 0 1 .094.116 2.9 2.9 0 0 1-.072.467.549.549 0 0 0 .056.437 11.465 11.465 0 0 0 1.736.957c.241.122.375.193.4.213a3.635 3.635 0 0 1 .131.769 5.057 5.057 0 0 1-.018 1.423 4.72 4.72 0 0 1-.39 1.28 3.734 3.734 0 0 1-1.327 1.568 3.946 3.946 0 0 1-1.958.634 4.724 4.724 0 0 1-2.316-.5 5.163 5.163 0 0 1-2.5-2.363 3.514 3.514 0 0 1 .006-3.238 3.46 3.46 0 0 1 .683-.993 9.429 9.429 0 0 1 1.016-.854.5.5 0 0 0 .164-.179c.031-.065 0-.142-.1-.233q-.193-.174-.141-.286c.042-.089.192-.083.45.014" transform="translate(-55.341 -28.753)"/>
        <path id="패스_28537" data-name="패스 28537" class="cls-3" d="m128.954 37.45 1.746 1.123c.094.086.107.167.037.244-.039.042-.128.049-.265.02a3.937 3.937 0 0 0-1.644-.116 2.361 2.361 0 0 0-1.125.775 4.356 4.356 0 0 0-.557.762q.794.85 1.819 1.779c.116.106.315.281.595.525l.28-.3a1.567 1.567 0 0 0 .349-.575 1.05 1.05 0 0 0-.087-.716 3.849 3.849 0 0 0-.248-.523c-.082-.117-.1-.207-.044-.265a.137.137 0 0 1 .219-.006.8.8 0 0 1 .071.078 24.1 24.1 0 0 0 1.762 1.684 2.752 2.752 0 0 0 .408.313.716.716 0 0 1 .091.066.158.158 0 0 1 .02.252q-.08.087-.382-.1a1.493 1.493 0 0 0-1.019-.259 1.935 1.935 0 0 0-1.059.676q.8.761 1.057.994 1.11 1.006 1.344 1.167a.655.655 0 0 0 .523.1 1.386 1.386 0 0 0 .669-.479 2.611 2.611 0 0 0 .638-3.07c-.069-.145-.081-.244-.032-.3a.137.137 0 0 1 .221-.01 1.4 1.4 0 0 1 .178.2l1.162 1.525-1.316 1.443q-.559.606-1.068 1.11t-.781.8q-.3.335-.868 1.055a1.564 1.564 0 0 1-.1.133c-.113.126-.22.142-.321.052a.173.173 0 0 1 0-.275.719.719 0 0 0 .217-.753 3.537 3.537 0 0 0-.921-1.079l-2.483-2.292q-1.283-1.163-1.6-1.4a.837.837 0 0 0-.523-.224 1.145 1.145 0 0 0-.538.277.191.191 0 0 1-.264-.275l.908-.932z" transform="translate(-61.254 -18.345)"/>
        <path id="패스_28538" data-name="패스 28538" class="cls-3" d="M143.137 36.574q-.187.145-1.561 1.165l-.933.735-.557.416a.805.805 0 0 1-.267.163c-.047.006-.1-.024-.148-.089q-.116-.15.066-.293a.948.948 0 0 0 .4-.542 1.05 1.05 0 0 0-.211-.693q-.261-.422-1.128-1.612t-1.626-2.166a9.306 9.306 0 0 0-1.422-1.6.68.68 0 0 0-.8.079.184.184 0 0 1-.274-.036.155.155 0 0 1 .027-.246c.055-.041.252-.165.593-.37q.564-.347.769-.506l1.58-1.3a4.34 4.34 0 0 1 1.851-.836 3.425 3.425 0 0 1 2.146.3 5.248 5.248 0 0 1 1.944 1.59 5.357 5.357 0 0 1 .9 1.692 3.889 3.889 0 0 1 .159 1.745 3.147 3.147 0 0 1-.488 1.375 4.909 4.909 0 0 1-1.018 1.029m-.584-.153a2.059 2.059 0 0 0 .82-1.862 4.879 4.879 0 0 0-1.176-2.583 5.746 5.746 0 0 0-2.4-1.931 2.228 2.228 0 0 0-2.314.306c-.235.183-.364.31-.385.379a.274.274 0 0 0-.009.169q.023.065.853 1.2l1.317 1.8q.491.658 1.238 1.617a8.068 8.068 0 0 0 .824.954.885.885 0 0 0 .553.244 1.1 1.1 0 0 0 .681-.292" transform="translate(-65.945 -14.098)"/>
        <path id="패스_28539" data-name="패스 28539" class="cls-3" d="m148.747 20.876 1.575-.733a5.6 5.6 0 0 0 .49-.286q.43-.273.689-.406c.164-.083.272-.071.329.038s.019.195-.105.268a.694.694 0 0 0-.362.565 3.141 3.141 0 0 0 .364 1.252q.394.886.923 1.921a13.683 13.683 0 0 0 1.271 2.164 1.762 1.762 0 0 0 1.022.624 1.984 1.984 0 0 0 1.306-.241 1.636 1.636 0 0 0 .891-.924 2.428 2.428 0 0 0-.094-1.422 23.29 23.29 0 0 0-1.373-3.02A7.1 7.1 0 0 0 154.611 19a.762.762 0 0 0-.829-.246c-.2.073-.331.053-.388-.06s-.01-.209.144-.288a3.881 3.881 0 0 1 .386-.158c.189-.073.38-.161.575-.26a6.667 6.667 0 0 0 .583-.343c.158-.1.269-.168.334-.2.16-.082.269-.066.328.046.045.09.015.173-.093.246a.744.744 0 0 0-.3.494 1.736 1.736 0 0 0 .16.929q.23.587 1.412 2.895a7.818 7.818 0 0 1 .876 2.329 2.259 2.259 0 0 1-.33 1.5 3.3 3.3 0 0 1-1.355 1.171 5.03 5.03 0 0 1-1.322.482 2.1 2.1 0 0 1-1.082-.047 2.165 2.165 0 0 1-.826-.513 4.78 4.78 0 0 1-.77-1.169l-1.574-3.122a8.787 8.787 0 0 0-.611-1.045 1.221 1.221 0 0 0-.474-.461.724.724 0 0 0-.482.03.517.517 0 0 1-.24.045.189.189 0 0 1-.105-.105q-.09-.175.117-.281" transform="translate(-72.793 -8.522)"/>
        <path id="패스_28540" data-name="패스 28540" class="cls-3" d="M170.561 14c.038-.131.076-.277.113-.435.041-.192.093-.3.155-.317a.138.138 0 0 1 .153.02 1.614 1.614 0 0 1 .174.372l.716 1.922.089.248c.053.167.023.267-.086.3q-.108.034-.24-.152a6.176 6.176 0 0 0-1.222-1.237 1.707 1.707 0 0 0-1.639-.378 1.454 1.454 0 0 0-.9.762 3.079 3.079 0 0 0-.28 1.4 6.478 6.478 0 0 0 .336 1.89 5.747 5.747 0 0 0 1.557 2.674 1.989 1.989 0 0 0 1.963.558q1.055-.332 1.448-2.161c.033-.148.081-.232.146-.253.109-.035.184.015.226.149a2.742 2.742 0 0 1-.4 1.57 2.741 2.741 0 0 1-1.747 1.539 3.2 3.2 0 0 1-2.934-.414 4.976 4.976 0 0 1-1.874-2.695A5.321 5.321 0 0 1 166.3 16a2.986 2.986 0 0 1 1.98-2.049 3.915 3.915 0 0 1 2.283.048" transform="translate(-81.332 -6.484)"/>
        <path id="패스_28541" data-name="패스 28541" class="cls-3" d="m181.618 11.338.365-.052q.975 1.756 2.841 5.558a16.884 16.884 0 0 0 1.139 2.1.974.974 0 0 0 .78.371.165.165 0 0 1 .185.146.184.184 0 0 1-.18.232c-.074.01-.27.023-.588.038a9.215 9.215 0 0 0-.943.078q-.369.053-.953.192-.437.1-.576.124-.245.036-.272-.153c-.015-.1.035-.158.146-.187q.646-.167.565-.724a4.426 4.426 0 0 0-.331-.931q-.292-.669-.594-1.206-.348.044-.541.072-1.075.156-1.674.249a9.305 9.305 0 0 0-.165 2.1.7.7 0 0 0 .311.52.937.937 0 0 0 .53.158c.137 0 .215.054.232.171s-.048.186-.194.208a7.523 7.523 0 0 1-.453.032q-.476.023-.69.054a4.87 4.87 0 0 0-.791.182.9.9 0 0 1-.158.043.175.175 0 0 1-.225-.166.183.183 0 0 1 .1-.207 1.478 1.478 0 0 0 .462-.344 1.976 1.976 0 0 0 .3-.678 11.683 11.683 0 0 0 .291-1.547q.331-2.371 1.079-6.435m-.046 2.323-.5 3.039 1.883-.308q-.224-.487-.662-1.331-.477-.911-.716-1.4" transform="translate(-87.869 -5.528)"/>
        <path id="패스_28542" data-name="패스 28542" class="cls-3" d="M190.1 10.663q2.8.087 4.145.084c.681 0 1.427-.027 2.245-.077.292-.018.531-.027.719-.028.071 0 .192 0 .361.007.025.178.059.548.1 1.109l.084 1.037q0 .256-.177.257c-.089 0-.176-.1-.259-.315a3.139 3.139 0 0 0-.528-.912 1.538 1.538 0 0 0-.746-.5 5.534 5.534 0 0 0-1.4-.121q-.084 1-.082 2.514 0 1.543.055 2.978a13.649 13.649 0 0 0 .122 1.73.769.769 0 0 0 .238.433 1.641 1.641 0 0 0 .788.189c.14.013.21.074.21.183a.162.162 0 0 1-.183.185l-.152-.007-1.118-.03q-1.306 0-1.588.016l-.68.034c-.054 0-.166 0-.335-.013a.152.152 0 0 1-.124-.164c0-.127.067-.19.2-.191a.981.981 0 0 0 .722-.244 1.256 1.256 0 0 0 .3-.772q.054-.53.051-2.3-.005-2.792-.149-4.543a6.528 6.528 0 0 0-1.286.091 1.511 1.511 0 0 0-.762.488 3.034 3.034 0 0 0-.6 1.028c-.061.167-.131.25-.21.25-.123 0-.184-.066-.184-.2q0-.06.065-.864t.152-1.337" transform="translate(-93.015 -5.213)"/>
        <path id="패스_28543" data-name="패스 28543" class="cls-3" d="M205.1 11.1q.187.024.766.134c.294.057.529.1.7.118l1.65.156c.139.017.2.085.187.2s-.083.157-.211.159a1.013 1.013 0 0 0-.588.12 1.271 1.271 0 0 0-.3.62 20.19 20.19 0 0 0-.368 2.288q-.259 2.056-.348 3.186a3.8 3.8 0 0 0 .041 1.414.593.593 0 0 0 .51.333c.175.021.255.089.241.2-.019.152-.124.216-.313.193-.054-.008-.132-.018-.235-.038q-1-.21-1.365-.257a8.621 8.621 0 0 0-1.2-.093 2.742 2.742 0 0 1-.292-.01c-.133-.017-.19-.088-.174-.214a.169.169 0 0 1 .188-.155.863.863 0 0 0 .651-.231 2.721 2.721 0 0 0 .335-1.121q.147-.9.387-2.809.254-2.013.282-2.7a1.811 1.811 0 0 0-.089-.863.8.8 0 0 0-.5-.261c-.135-.029-.193-.107-.178-.228s.087-.161.219-.144" transform="translate(-99.831 -5.438)"/>
        <path id="패스_28544" data-name="패스 28544" class="cls-3" d="M216.506 13.522a3.419 3.419 0 0 1 1.708 1 3.746 3.746 0 0 1 .877 1.822 4.938 4.938 0 0 1-.082 2.249 5.1 5.1 0 0 1-1.919 2.867 3.432 3.432 0 0 1-3.063.665 3.389 3.389 0 0 1-2.208-1.795 4.525 4.525 0 0 1-.233-3.347 4.938 4.938 0 0 1 1.9-2.855 3.442 3.442 0 0 1 3.018-.606m.686 4.8a6.343 6.343 0 0 0 .223-3.036 1.484 1.484 0 0 0-2.719-.711 6.365 6.365 0 0 0-1.3 2.752 6.671 6.671 0 0 0-.236 2.994 1.6 1.6 0 0 0 1.112 1.378 1.653 1.653 0 0 0 1.574-.567 6.059 6.059 0 0 0 1.343-2.809" transform="translate(-103.545 -6.564)"/>
        <path id="패스_28545" data-name="패스 28545" class="cls-3" d="M228.579 17.156q.8 4.339 1.437 7.03c.131-.267.214-.44.252-.519l1.117-2.345a7.045 7.045 0 0 0 .485-1.226 1.084 1.084 0 0 0-.063-.723 1.213 1.213 0 0 0-.475-.523.193.193 0 0 1-.093-.269.165.165 0 0 1 .246-.094 1.847 1.847 0 0 1 .229.135 7.165 7.165 0 0 0 .8.424 10.3 10.3 0 0 0 1.044.442 2.612 2.612 0 0 1 .256.1.175.175 0 0 1 .1.26c-.053.112-.166.137-.341.079a1.046 1.046 0 0 0-.722.042 1.814 1.814 0 0 0-.785.972l-1.566 3.368-1.23 2.509q-.155.327-.32.248a.216.216 0 0 1-.085-.084 10.723 10.723 0 0 1-.282-1.14q-.24-1.076-.663-3.3t-.571-3.173q-.085.155-1.423 2.98a13.2 13.2 0 0 0-.587 1.4 1.069 1.069 0 0 0 .04.9 1.15 1.15 0 0 0 .472.5.157.157 0 0 1 .093.233.173.173 0 0 1-.26.1 2.36 2.36 0 0 1-.271-.158 5.424 5.424 0 0 0-.724-.4 8.23 8.23 0 0 0-1.078-.445 2.549 2.549 0 0 1-.306-.11.188.188 0 0 1-.1-.285c.045-.1.174-.1.389-.027a.794.794 0 0 0 .909-.137 3.955 3.955 0 0 0 .667-1.049q1.452-3.062 1.748-3.757a2.89 2.89 0 0 0 .234-1.4 1.406 1.406 0 0 0-.471-1.028c-.113-.088-.148-.179-.1-.274a.193.193 0 0 1 .292-.1 1.28 1.28 0 0 1 .137.08c.071.043.2.11.4.2q.634.3 1.172.577" transform="translate(-109.323 -7.967)"/>
        <path id="패스_28546" data-name="패스 28546" class="cls-3" d="m242.637 26.668.3.212q-.5 1.945-1.772 5.986a17.013 17.013 0 0 0-.623 2.309.976.976 0 0 0 .309.807.164.164 0 0 1 .034.233.184.184 0 0 1-.29.044 8.894 8.894 0 0 1-.454-.377 9.07 9.07 0 0 0-.737-.593q-.3-.214-.822-.518-.388-.227-.5-.308-.2-.144-.093-.3c.055-.079.134-.09.236-.034q.584.324.908-.135a4.432 4.432 0 0 0 .4-.9c.165-.457.3-.885.4-1.284-.189-.138-.336-.246-.442-.321q-.887-.627-1.386-.972a9.3 9.3 0 0 0-1.564 1.407.7.7 0 0 0-.134.591.944.944 0 0 0 .275.479.2.2 0 0 1 .051.284c-.068.1-.162.1-.283.017q-.07-.049-.351-.288-.36-.311-.537-.436a4.759 4.759 0 0 0-.7-.413.83.83 0 0 1-.143-.077.176.176 0 0 1-.049-.277.182.182 0 0 1 .215-.081 1.473 1.473 0 0 0 .572.069 1.992 1.992 0 0 0 .686-.283 12.007 12.007 0 0 0 1.276-.921q1.874-1.488 5.215-3.918M241 28.319l-2.459 1.855 1.576 1.074q.174-.507.438-1.42.283-.99.446-1.509" transform="translate(-114.931 -13.063)"/>
        <path id="패스_28547" data-name="패스 28547" class="cls-3" d="M249.532 42.522q-.92-.989-2.985-2.949a14.446 14.446 0 0 0-1.22-1.058 2.608 2.608 0 0 1-.169-.143.178.178 0 0 1-.013-.284.145.145 0 0 1 .127-.056.911.911 0 0 1 .244.128.921.921 0 0 0 .537.179 1.054 1.054 0 0 0 .553-.218 13.649 13.649 0 0 0 1.32-1.27q1.019-1.058 2.413-2.528a5 5 0 0 0 .738-.919 1.1 1.1 0 0 0 .166-.577.8.8 0 0 0-.241-.487c-.107-.113-.115-.217-.024-.312s.2-.083.328.039l1.253 1.28q.3.286.876.762c.137.116.23.2.277.241.11.1.12.2.034.294a.159.159 0 0 1-.155.057 1.4 1.4 0 0 1-.33-.182.864.864 0 0 0-.523-.189 1.069 1.069 0 0 0-.539.278q-.318.261-1.3 1.292l-2.748 2.9a2.567 2.567 0 0 0-.656.888.581.581 0 0 0 .236.465 3.882 3.882 0 0 0 1.071.784 2.163 2.163 0 0 0 1.015.125 5.718 5.718 0 0 0 1.626-.494c.141-.06.234-.068.282-.023.069.067.061.146-.027.238q-.294.308-2.168 1.744" transform="translate(-120.052 -15.658)"/>
        <path id="패스_28548" data-name="패스 28548" class="cls-3" d="m269.645 55.371-1.554 1.262-.072.058c-.109.065-.183.066-.221 0-.024-.042-.009-.11.049-.2a3.977 3.977 0 0 0 .559-1.44 2.633 2.633 0 0 0-.5-1.672q-.417-.689-.644-.665a23.119 23.119 0 0 0-2.811 1.589 3.209 3.209 0 0 0 .563.735.916.916 0 0 0 .562.239 2.829 2.829 0 0 0 .971-.214c.117-.041.191-.038.221.012.056.092.013.182-.129.267l-1.815 1.058a10 10 0 0 1-1.027.566.119.119 0 0 1-.132-.059q-.07-.116.141-.275a1.787 1.787 0 0 0 .649-.794q.154-.423-.379-1.305l-2.087 1.258a4.249 4.249 0 0 0-.826.6.679.679 0 0 0-.221.426 1.053 1.053 0 0 0 .167.51.963.963 0 0 1 .134.3c0 .053-.031.1-.1.143-.119.073-.222.039-.305-.1s-.209-.374-.4-.743q-.238-.468-.374-.695l-.939-1.423c-.089-.147-.08-.254.029-.32s.21 0 .327.173a.651.651 0 0 0 .851.254 40.1 40.1 0 0 0 3.6-2.054 14.842 14.842 0 0 0 2.3-1.551.623.623 0 0 0 .033-.805l-.081-.122a.172.172 0 0 1 .068-.267c.1-.064.211-.006.319.172z" transform="translate(-126.903 -24.539)"/>
        <path id="패스_28549" data-name="패스 28549" class="cls-3" d="M275.536 66.71a3.43 3.43 0 0 1 .215 1.968 3.754 3.754 0 0 1-.942 1.79 4.935 4.935 0 0 1-1.856 1.275 5.1 5.1 0 0 1-3.446.165 3.439 3.439 0 0 1-2.359-2.064 3.392 3.392 0 0 1 .129-2.844 4.527 4.527 0 0 1 2.551-2.181 4.941 4.941 0 0 1 3.424-.172 3.447 3.447 0 0 1 2.284 2.063m-3.445 3.409a6.377 6.377 0 0 0 2.573-1.629 1.485 1.485 0 0 0-1.049-2.608 6.362 6.362 0 0 0-2.983.6 6.672 6.672 0 0 0-2.546 1.592 1.6 1.6 0 0 0-.445 1.716 1.654 1.654 0 0 0 1.394.926 6.06 6.06 0 0 0 3.055-.593" transform="translate(-130.739 -31.556)"/>
        <path id="패스_28550" data-name="패스 28550" class="cls-3" d="m279.337 77.726.276 1.716a5.57 5.57 0 0 0 .143.548q.145.489.2.774c.037.18-.006.282-.125.306s-.192-.035-.229-.174a.693.693 0 0 0-.446-.5 3.1 3.1 0 0 0-1.3.011q-.961.136-2.1.365a13.638 13.638 0 0 0-2.427.634 1.752 1.752 0 0 0-.878.814 1.992 1.992 0 0 0-.124 1.323 1.633 1.633 0 0 0 .647 1.108 2.416 2.416 0 0 0 1.394.3 23.175 23.175 0 0 0 3.279-.5 7.105 7.105 0 0 0 1.9-.567.762.762 0 0 0 .462-.731c-.016-.213.039-.332.163-.358s.2.048.237.217a4.011 4.011 0 0 1 .047.414c.02.2.052.41.094.625a6.66 6.66 0 0 0 .17.653c.055.18.089.306.1.375.036.177-.009.277-.133.3-.1.02-.169-.032-.213-.156a.745.745 0 0 0-.395-.419 1.725 1.725 0 0 0-.937-.1q-.627.061-3.17.571a7.824 7.824 0 0 1-2.479.21 2.258 2.258 0 0 1-1.358-.726 3.3 3.3 0 0 1-.757-1.622 5.015 5.015 0 0 1-.1-1.4 2.1 2.1 0 0 1 .34-1.027 2.121 2.121 0 0 1 .719-.656 4.711 4.711 0 0 1 1.333-.424l3.432-.665a8.963 8.963 0 0 0 1.171-.3 1.218 1.218 0 0 0 .572-.332.719.719 0 0 0 .1-.472.5.5 0 0 1 .021-.243.183.183 0 0 1 .13-.072c.128-.026.208.037.239.189" transform="translate(-132.878 -37.979)"/>
        <path id="패스_28551" data-name="패스 28551" class="cls-3" d="M281.714 96.042q-3.538 2.638-5.671 4.4h.576l2.6-.035a7.07 7.07 0 0 0 1.315-.107 1.082 1.082 0 0 0 .62-.377 1.211 1.211 0 0 0 .258-.657c.016-.133.082-.2.2-.2a.165.165 0 0 1 .193.18 1.906 1.906 0 0 1-.02.265 7.365 7.365 0 0 0-.028.9 10.1 10.1 0 0 0 .066 1.131c.013.108.021.2.022.275 0 .137-.061.205-.188.208s-.2-.089-.221-.271a1.041 1.041 0 0 0-.357-.63 1.813 1.813 0 0 0-1.219-.274l-3.713.085-2.8.006c-.241 0-.361-.056-.363-.179a.212.212 0 0 1 .037-.113 10.6 10.6 0 0 1 .9-.756q.859-.689 2.667-2.054t2.593-1.916q-.178-.007-3.3.041a13.176 13.176 0 0 0-1.512.091 1.072 1.072 0 0 0-.788.433 1.161 1.161 0 0 0-.236.644c0 .122-.054.183-.168.185a.173.173 0 0 1-.2-.191 2.344 2.344 0 0 1 .021-.313 5.216 5.216 0 0 0 .039-.826 7.885 7.885 0 0 0-.077-1.165 2.4 2.4 0 0 1-.037-.323.188.188 0 0 1 .213-.214c.1 0 .17.111.195.337a.794.794 0 0 0 .525.755 3.941 3.941 0 0 0 1.236.135q3.388-.053 4.143-.094a2.881 2.881 0 0 0 1.36-.41 1.4 1.4 0 0 0 .715-.877q.043-.211.2-.214a.194.194 0 0 1 .22.218 1.37 1.37 0 0 1-.011.157c-.007.083-.01.233-.007.448q.011.7 0 1.306" transform="translate(-133.691 -46.003)"/>
        <path id="패스_28552" data-name="패스 28552" class="cls-3" d="M271.792 112.031q.041-.236.372-1.912l.2-1.171.131-.683a.784.784 0 0 1 .089-.3.172.172 0 0 1 .169-.033c.124.021.174.108.148.261a.942.942 0 0 0 .07.669 1.047 1.047 0 0 0 .623.371q.476.136 1.919.433t2.66.509a9.3 9.3 0 0 0 2.131.229.679.679 0 0 0 .54-.6.185.185 0 0 1 .228-.157.154.154 0 0 1 .144.2c-.012.068-.075.292-.19.674a9.16 9.16 0 0 0-.228.892l-.3 2.023a4.342 4.342 0 0 1-.807 1.863 3.43 3.43 0 0 1-1.792 1.22 5.255 5.255 0 0 1-2.506.131 5.355 5.355 0 0 1-1.806-.643 3.9 3.9 0 0 1-1.293-1.185 3.163 3.163 0 0 1-.564-1.345 4.967 4.967 0 0 1 .061-1.446m.536-.28a2.058 2.058 0 0 0 .645 1.93 4.879 4.879 0 0 0 2.607 1.119 5.734 5.734 0 0 0 3.076-.187 2.228 2.228 0 0 0 1.507-1.782 1.282 1.282 0 0 0 .03-.539.27.27 0 0 0-.108-.131q-.06-.034-1.439-.316l-2.184-.445q-.807-.157-2-.363a7.983 7.983 0 0 0-1.251-.152.887.887 0 0 0-.574.191 1.1 1.1 0 0 0-.307.674" transform="translate(-133.094 -52.868)"/>
        <path id="패스_28553" data-name="패스 28553" class="cls-3" d="m276.262 127.431-.121.347q-2.008.051-6.243-.054a16.8 16.8 0 0 0-2.392.037.974.974 0 0 0-.689.519.163.163 0 0 1-.215.1.183.183 0 0 1-.123-.265c.025-.071.1-.252.238-.54a9.443 9.443 0 0 0 .367-.871q.123-.352.271-.934c.073-.291.126-.481.157-.569.055-.156.142-.213.262-.171q.136.047.1.216-.151.652.38.837a4.409 4.409 0 0 0 .977.138q.729.049 1.345.031.122-.33.186-.514.358-1.025.553-1.6a9.317 9.317 0 0 0-1.784-1.118.7.7 0 0 0-.6.035.931.931 0 0 0-.385.4c-.062.123-.148.165-.26.126s-.143-.128-.094-.267q.028-.081.18-.417c.134-.288.224-.5.272-.636a4.908 4.908 0 0 0 .205-.785.933.933 0 0 1 .034-.16.175.175 0 0 1 .253-.123.185.185 0 0 1 .137.185 1.479 1.479 0 0 0 .091.57 1.963 1.963 0 0 0 .461.581 11.584 11.584 0 0 0 1.236.974q1.947 1.391 5.2 3.935m-2.037-1.116-2.462-1.854-.6 1.812q.535.027 1.487.03 1.028 0 1.573.013" transform="translate(-130.526 -59.355)"/>
        <path id="패스_28554" data-name="패스 28554" class="cls-3" d="M273.255 137.188q-1.377 2.442-2 3.634-.471.9-.974 2.024-.178.4-.308.649c-.033.063-.091.169-.173.317q-.256-.092-1.03-.427l-.957-.407q-.228-.119-.145-.275c.041-.081.174-.108.4-.084a3.209 3.209 0 0 0 1.052-.044 1.533 1.533 0 0 0 .792-.428 5.444 5.444 0 0 0 .758-1.184q-.851-.541-2.19-1.239-1.367-.714-2.663-1.334a13.639 13.639 0 0 0-1.589-.694.764.764 0 0 0-.494.011 1.623 1.623 0 0 0-.534.61c-.076.118-.163.153-.26.1a.162.162 0 0 1-.078-.247l.076-.131.546-.977q.6-1.16.722-1.414l.285-.618c.025-.048.08-.145.166-.291a.153.153 0 0 1 .2-.034.174.174 0 0 1 .074.269.981.981 0 0 0-.118.754 1.251 1.251 0 0 0 .545.622q.442.295 2.009 1.11 2.474 1.291 4.094 1.977a6.654 6.654 0 0 0 .516-1.183 1.509 1.509 0 0 0-.079-.9 3.045 3.045 0 0 0-.634-1.006c-.119-.131-.16-.232-.124-.3a.169.169 0 0 1 .259-.071c.035.018.28.17.735.459s.826.539 1.115.755" transform="translate(-128.75 -65.974)"/>
        <path id="패스_28555" data-name="패스 28555" class="cls-3" d="M266.7 148.738q-.109.155-.478.614c-.189.232-.334.421-.435.564l-.914 1.383c-.081.113-.17.136-.266.068s-.1-.147-.041-.26a1.009 1.009 0 0 0 .17-.576 1.254 1.254 0 0 0-.4-.557 20.15 20.15 0 0 0-1.846-1.4q-1.693-1.2-2.648-1.807a3.8 3.8 0 0 0-1.267-.629.59.59 0 0 0-.533.294c-.1.143-.2.183-.293.117-.125-.089-.132-.211-.022-.367q.047-.066.143-.189.655-.779.87-1.083a8.681 8.681 0 0 0 .646-1.016 2.907 2.907 0 0 1 .147-.253.173.173 0 0 1 .271-.053.169.169 0 0 1 .047.24.864.864 0 0 0-.1.684 2.725 2.725 0 0 0 .83.822q.727.554 2.3 1.665 1.656 1.17 2.25 1.52a1.79 1.79 0 0 0 .8.325.788.788 0 0 0 .464-.315.193.193 0 0 1 .285-.05c.092.066.1.154.023.261" transform="translate(-126.206 -70.314)"/>
        <path id="패스_28556" data-name="패스 28556" class="cls-3" d="M259.19 158.752a3.421 3.421 0 0 1-1.674 1.056 3.746 3.746 0 0 1-2.021-.062 4.931 4.931 0 0 1-1.96-1.109 5.1 5.1 0 0 1-1.66-3.025 3.436 3.436 0 0 1 .821-3.025 3.393 3.393 0 0 1 2.61-1.133 4.529 4.529 0 0 1 3.078 1.336 4.941 4.941 0 0 1 1.657 3 3.448 3.448 0 0 1-.853 2.957m-4.573-1.6a6.35 6.35 0 0 0 2.592 1.6 1.484 1.484 0 0 0 1.883-2.086 6.35 6.35 0 0 0-1.844-2.419 6.683 6.683 0 0 0-2.547-1.59 1.6 1.6 0 0 0-1.737.352 1.654 1.654 0 0 0-.222 1.659 6.047 6.047 0 0 0 1.874 2.485" transform="translate(-123.351 -74.191)"/>
        <path id="패스_28557" data-name="패스 28557" class="cls-3" d="M248.045 166.961q-4.223-1.288-6.9-1.965c.177.239.292.394.345.463l1.566 2.072a7.063 7.063 0 0 0 .864.995 1.08 1.08 0 0 0 .671.277 1.21 1.21 0 0 0 .682-.181.193.193 0 0 1 .282.042.166.166 0 0 1-.031.263 1.97 1.97 0 0 1-.226.14 7.279 7.279 0 0 0-.742.511 9.989 9.989 0 0 0-.873.723 2.734 2.734 0 0 1-.208.181.176.176 0 0 1-.279-.027c-.073-.1-.044-.212.089-.339a1.046 1.046 0 0 0 .294-.661 1.814 1.814 0 0 0-.5-1.145l-2.268-2.94-1.66-2.249c-.146-.191-.169-.325-.073-.4a.226.226 0 0 1 .115-.037 10.89 10.89 0 0 1 1.141.276q1.064.284 3.234.932t3.079.956q-.1-.147-1.989-2.636a13.012 13.012 0 0 0-.969-1.164 1.069 1.069 0 0 0-.816-.379 1.152 1.152 0 0 0-.658.19.157.157 0 0 1-.249-.025.173.173 0 0 1 .035-.274 2.359 2.359 0 0 1 .265-.167 5.517 5.517 0 0 0 .689-.458 8 8 0 0 0 .892-.752 2.575 2.575 0 0 1 .238-.222.189.189 0 0 1 .3.045c.064.084.012.2-.155.357a.793.793 0 0 0-.3.869 3.956 3.956 0 0 0 .624 1.076q2.048 2.7 2.53 3.282a2.876 2.876 0 0 0 1.135.853 1.4 1.4 0 0 0 1.13.057q.2-.09.29.035a.193.193 0 0 1-.045.307 1.463 1.463 0 0 1-.133.084 5.577 5.577 0 0 0-.365.261q-.558.423-1.051.774" transform="translate(-117.083 -77.841)"/>
        <path id="패스_28558" data-name="패스 28558" class="cls-3" d="M171.439 183.495c.339.108 3.563.807 3.79.571s.5-1.244.729-1.024-.848 2.333-1.069 2.561-2.708-.588-3.6-.925a5.691 5.691 0 0 0-1.79-.335s1.583-1.165 2.815-2.144a5.944 5.944 0 0 0 1.728-1.964 3.852 3.852 0 0 0 .548-2.6 1.325 1.325 0 0 0-1.381-1.032c-.815.013-1.369 1.4-1.361 1.864l-.516-.624a2.416 2.416 0 0 1 1.047-1.3 3.628 3.628 0 0 1 2.62-.381 2 2 0 0 1 1.4.99 2.655 2.655 0 0 1 .263 1.85 3.527 3.527 0 0 1-.4 1.069 4.158 4.158 0 0 1-.677.913 9.414 9.414 0 0 1-1.437 1.037c-.394.252-2.708 1.465-2.708 1.465" transform="translate(-83.029 -86.253)"/>
        <path id="패스_28559" data-name="패스 28559" class="cls-3" d="M191.569 183.422a6.981 6.981 0 0 1-.581 2.148 4.2 4.2 0 0 1-1.362 1.722 2.75 2.75 0 0 1-1.953.55 2.825 2.825 0 0 1-2.26-1.583 5.508 5.508 0 0 1-.62-3.306 5.954 5.954 0 0 1 1.308-3.29 2.76 2.76 0 0 1 4.258-.4 3.668 3.668 0 0 1 1.044 1.9 6.907 6.907 0 0 1 .167 2.253m-1.842-.216a9.209 9.209 0 0 0-.089-3.035q-.279-1.11-.985-1.177c-.465-.045-.913.3-1.275 1.022a9.535 9.535 0 0 0-.753 3.2 7.743 7.743 0 0 0 .165 2.979q.325 1.037 1 1.1.76.073 1.241-.949a10.129 10.129 0 0 0 .693-3.142" transform="translate(-90.503 -87.409)"/>
        <path id="패스_28560" data-name="패스 28560" class="cls-3" d="M206.181 182.776a6.985 6.985 0 0 1-.276 2.209 4.2 4.2 0 0 1-1.11 1.895 2.752 2.752 0 0 1-1.857.816 2.825 2.825 0 0 1-2.458-1.252 5.5 5.5 0 0 1-1.075-3.188 5.956 5.956 0 0 1 .837-3.44 2.759 2.759 0 0 1 4.162-.988 3.658 3.658 0 0 1 1.3 1.741 6.908 6.908 0 0 1 .48 2.208m-1.854.043a9.214 9.214 0 0 0-.511-2.993q-.432-1.06-1.14-1.029t-1.088 1.185a9.538 9.538 0 0 0-.3 3.273 7.859 7.859 0 0 0 .546 2.932q.465.983 1.147.953.762-.033 1.1-1.113a10.146 10.146 0 0 0 .248-3.207" transform="translate(-97.675 -87.32)"/>
        <path id="패스_28561" data-name="패스 28561" class="cls-3" d="M220.374 179.579a7.012 7.012 0 0 1 .135 2.22 4.191 4.191 0 0 1-.742 2.067 2.752 2.752 0 0 1-1.675 1.145 2.825 2.825 0 0 1-2.648-.779 5.506 5.506 0 0 1-1.644-2.932 5.962 5.962 0 0 1 .189-3.535 2.762 2.762 0 0 1 3.908-1.739 3.661 3.661 0 0 1 1.6 1.472 6.931 6.931 0 0 1 .878 2.083m-1.815.383a9.213 9.213 0 0 0-1.053-2.849q-.621-.961-1.309-.8t-.852 1.364a9.553 9.553 0 0 0 .308 3.272 7.873 7.873 0 0 0 1.076 2.782q.64.878 1.3.725.743-.173.873-1.3a10.135 10.135 0 0 0-.346-3.2" transform="translate(-104.643 -86.082)"/>
        <path id="패스_28562" data-name="패스 28562" class="cls-3" d="M148.227 166.728a5.725 5.725 0 0 0 .711-1.28.663.663 0 0 0-.293-.625q-.191-.172-.119-.282a.2.2 0 0 1 .316-.068 2.791 2.791 0 0 1 .252.2 9.7 9.7 0 0 0 1.043.77 8.326 8.326 0 0 0 .975.537 2.682 2.682 0 0 1 .277.151c.1.066.113.161.035.281a.161.161 0 0 1-.129.089.772.772 0 0 1-.266-.1.618.618 0 0 0-.405-.065.86.86 0 0 0-.378.27 14.42 14.42 0 0 0-.875 1.189q-.666.961-1.444 2.147t-1.084 1.708a3.558 3.558 0 0 0-.375.794.69.69 0 0 0-.026.407 1.112 1.112 0 0 0 .313.342.165.165 0 0 1 .044.248c-.075.114-.187.122-.337.022q-.162-.106-.466-.352a7.525 7.525 0 0 0-.63-.475 25.89 25.89 0 0 0-.927-.544 9.383 9.383 0 0 1-.341-.209c-.114-.075-.139-.162-.073-.26a.2.2 0 0 1 .29-.061.606.606 0 0 0 .508.082 1.07 1.07 0 0 0 .389-.376z" transform="translate(-70.533 -80.543)"/>
        <path id="패스_28563" data-name="패스 28563" class="cls-3" d="M144.625 166.514s.239-1.388.375-2.547.347-1.667-.551-2.5-1.33-1.065-1.5-.882.124.466.219.553a5.891 5.891 0 0 1 .22 3.157c-.271 1.812-.323 2.264-.323 2.264a7.432 7.432 0 0 1-1.365.66c-.9.345-1.649.616-2.067.364s-.542-.35-.643-.24.051.271.117.331 1.01.73 1.065.78 4.206-1.772 4.453-1.944" transform="translate(-68.068 -78.636)"/>
    </g>
</svg>
